<?xml version="1.0" encoding="UTF-8" standalone="no"?>
<!DOCTYPE svg PUBLIC "-//W3C//DTD SVG 1.1//EN"
 "http://www.w3.org/Graphics/SVG/1.1/DTD/svg11.dtd">
<!-- Generated by graphviz version 2.38.0 (20140413.2041)
 -->
<!-- Title: Civ 6 R&amp;F Civic, Technology, and Boosts network Pages: 1 -->
<svg width="1912pt" height="496pt"
 viewBox="0.00 0.00 1912.00 496.00" xmlns="http://www.w3.org/2000/svg" xmlns:xlink="http://www.w3.org/1999/xlink">
<g id="graph0" class="graph" transform="scale(1 1) rotate(0) translate(4 492)">
<title>Civ 6 R&amp;F Civic, Technology, and Boosts network</title>
<polygon fill="white" stroke="none" points="-4,4 -4,-492 1908,-492 1908,4 -4,4"/>
<!-- BOOST_CIVIC_FEUDALISM -->
<g id="node1" class="node"><title>BOOST_CIVIC_FEUDALISM</title>
<path fill="none" stroke="#9eadbf" d="M1497,-272C1497,-272 1431,-272 1431,-272 1425,-272 1419,-266 1419,-260 1419,-260 1419,-246 1419,-246 1419,-240 1425,-234 1431,-234 1431,-234 1497,-234 1497,-234 1503,-234 1509,-240 1509,-246 1509,-246 1509,-260 1509,-260 1509,-266 1503,-272 1497,-272"/>
<text text-anchor="middle" x="1464" y="-256.8" font-family="Times New Roman,serif" font-size="14.00">6 Farms built</text>
<text text-anchor="middle" x="1464" y="-241.8" font-family="Times New Roman,serif" font-size="14.00">120P</text>
</g>
<!-- CIVIC_FEUDALISM -->
<g id="node13" class="node"><title>CIVIC_FEUDALISM</title>
<path fill="none" stroke="#e800e8" d="M1620,-216C1620,-216 1570,-216 1570,-216 1564,-216 1558,-210 1558,-204 1558,-204 1558,-190 1558,-190 1558,-184 1564,-178 1570,-178 1570,-178 1620,-178 1620,-178 1626,-178 1632,-184 1632,-190 1632,-190 1632,-204 1632,-204 1632,-210 1626,-216 1620,-216"/>
<text text-anchor="middle" x="1595" y="-200.8" font-family="Times New Roman,serif" font-size="14.00">Feudalism</text>
<text text-anchor="middle" x="1595" y="-185.8" font-family="Times New Roman,serif" font-size="14.00">275C</text>
</g>
<!-- BOOST_CIVIC_FEUDALISM&#45;&gt;CIVIC_FEUDALISM -->
<g id="edge1" class="edge"><title>BOOST_CIVIC_FEUDALISM&#45;&gt;CIVIC_FEUDALISM</title>
<path fill="none" stroke="#9eadbf" stroke-dasharray="5,2" d="M1509.03,-233.885C1521.71,-228.38 1535.57,-222.365 1548.35,-216.819"/>
<polygon fill="#9eadbf" stroke="#9eadbf" points="1550.09,-219.878 1557.87,-212.686 1547.3,-213.457 1550.09,-219.878"/>
</g>
<!-- BOOST_TECH_MASONRY -->
<g id="node2" class="node"><title>BOOST_TECH_MASONRY</title>
<path fill="none" stroke="#9eadbf" d="M374.5,-242C374.5,-242 305.5,-242 305.5,-242 299.5,-242 293.5,-236 293.5,-230 293.5,-230 293.5,-216 293.5,-216 293.5,-210 299.5,-204 305.5,-204 305.5,-204 374.5,-204 374.5,-204 380.5,-204 386.5,-210 386.5,-216 386.5,-216 386.5,-230 386.5,-230 386.5,-236 380.5,-242 374.5,-242"/>
<text text-anchor="middle" x="340" y="-226.8" font-family="Times New Roman,serif" font-size="14.00">Quarry mined</text>
<text text-anchor="middle" x="340" y="-211.8" font-family="Times New Roman,serif" font-size="14.00">20P</text>
</g>
<!-- TECH_MASONRY -->
<g id="node12" class="node"><title>TECH_MASONRY</title>
<path fill="none" stroke="#21bff7" d="M527,-242C527,-242 485,-242 485,-242 479,-242 473,-236 473,-230 473,-230 473,-216 473,-216 473,-210 479,-204 485,-204 485,-204 527,-204 527,-204 533,-204 539,-210 539,-216 539,-216 539,-230 539,-230 539,-236 533,-242 527,-242"/>
<text text-anchor="middle" x="506" y="-226.8" font-family="Times New Roman,serif" font-size="14.00">Masonry</text>
<text text-anchor="middle" x="506" y="-211.8" font-family="Times New Roman,serif" font-size="14.00">80S</text>
</g>
<!-- BOOST_TECH_MASONRY&#45;&gt;TECH_MASONRY -->
<g id="edge2" class="edge"><title>BOOST_TECH_MASONRY&#45;&gt;TECH_MASONRY</title>
<path fill="none" stroke="#9eadbf" stroke-dasharray="5,2" d="M386.683,-223C410.436,-223 439.284,-223 462.548,-223"/>
<polygon fill="#9eadbf" stroke="#9eadbf" points="462.805,-226.5 472.805,-223 462.805,-219.5 462.805,-226.5"/>
</g>
<!-- BOOST_CIVIC_CRAFTSMANSHIP -->
<g id="node3" class="node"><title>BOOST_CIVIC_CRAFTSMANSHIP</title>
<path fill="none" stroke="#9eadbf" d="M383.5,-336C383.5,-336 296.5,-336 296.5,-336 290.5,-336 284.5,-330 284.5,-324 284.5,-324 284.5,-310 284.5,-310 284.5,-304 290.5,-298 296.5,-298 296.5,-298 383.5,-298 383.5,-298 389.5,-298 395.5,-304 395.5,-310 395.5,-310 395.5,-324 395.5,-324 395.5,-330 389.5,-336 383.5,-336"/>
<text text-anchor="middle" x="340" y="-320.8" font-family="Times New Roman,serif" font-size="14.00">3 Tiles improved</text>
<text text-anchor="middle" x="340" y="-305.8" font-family="Times New Roman,serif" font-size="14.00">60P</text>
</g>
<!-- CIVIC_CRAFTSMANSHIP -->
<g id="node31" class="node"><title>CIVIC_CRAFTSMANSHIP</title>
<path fill="none" stroke="#e800e8" d="M543,-298C543,-298 469,-298 469,-298 463,-298 457,-292 457,-286 457,-286 457,-272 457,-272 457,-266 463,-260 469,-260 469,-260 543,-260 543,-260 549,-260 555,-266 555,-272 555,-272 555,-286 555,-286 555,-292 549,-298 543,-298"/>
<text text-anchor="middle" x="506" y="-282.8" font-family="Times New Roman,serif" font-size="14.00">Craftsmanship</text>
<text text-anchor="middle" x="506" y="-267.8" font-family="Times New Roman,serif" font-size="14.00">40C</text>
</g>
<!-- BOOST_CIVIC_CRAFTSMANSHIP&#45;&gt;CIVIC_CRAFTSMANSHIP -->
<g id="edge3" class="edge"><title>BOOST_CIVIC_CRAFTSMANSHIP&#45;&gt;CIVIC_CRAFTSMANSHIP</title>
<path fill="none" stroke="#9eadbf" stroke-dasharray="5,2" d="M395.61,-304.347C412.046,-300.538 430.14,-296.346 446.8,-292.485"/>
<polygon fill="#9eadbf" stroke="#9eadbf" points="448.008,-295.798 456.96,-290.131 446.428,-288.979 448.008,-295.798"/>
</g>
<!-- TECH_MINING -->
<g id="node4" class="node"><title>TECH_MINING</title>
<path fill="none" stroke="#21bff7" d="M197,-227C197,-227 166,-227 166,-227 160,-227 154,-221 154,-215 154,-215 154,-201 154,-201 154,-195 160,-189 166,-189 166,-189 197,-189 197,-189 203,-189 209,-195 209,-201 209,-201 209,-215 209,-215 209,-221 203,-227 197,-227"/>
<text text-anchor="middle" x="181.5" y="-211.8" font-family="Times New Roman,serif" font-size="14.00">Mining</text>
<text text-anchor="middle" x="181.5" y="-196.8" font-family="Times New Roman,serif" font-size="14.00">25S</text>
</g>
<!-- TECH_MINING&#45;&gt;BOOST_TECH_MASONRY -->
<g id="edge6" class="edge"><title>TECH_MINING&#45;&gt;BOOST_TECH_MASONRY</title>
<path fill="none" stroke="#9eadbf" d="M209.048,-210.545C229.283,-212.484 257.867,-215.224 283.076,-217.64"/>
<polygon fill="#9eadbf" stroke="#9eadbf" points="282.985,-221.147 293.274,-218.617 283.653,-214.179 282.985,-221.147"/>
</g>
<!-- BOOST_TECH_THE_WHEEL -->
<g id="node9" class="node"><title>BOOST_TECH_THE_WHEEL</title>
<path fill="none" stroke="#9eadbf" d="M364.5,-186C364.5,-186 315.5,-186 315.5,-186 309.5,-186 303.5,-180 303.5,-174 303.5,-174 303.5,-160 303.5,-160 303.5,-154 309.5,-148 315.5,-148 315.5,-148 364.5,-148 364.5,-148 370.5,-148 376.5,-154 376.5,-160 376.5,-160 376.5,-174 376.5,-174 376.5,-180 370.5,-186 364.5,-186"/>
<text text-anchor="middle" x="340" y="-170.8" font-family="Times New Roman,serif" font-size="14.00">Hill mined</text>
<text text-anchor="middle" x="340" y="-155.8" font-family="Times New Roman,serif" font-size="14.00">20P</text>
</g>
<!-- TECH_MINING&#45;&gt;BOOST_TECH_THE_WHEEL -->
<g id="edge7" class="edge"><title>TECH_MINING&#45;&gt;BOOST_TECH_THE_WHEEL</title>
<path fill="none" stroke="#9eadbf" d="M209.048,-201.045C232.193,-194.981 266.262,-186.056 293.71,-178.865"/>
<polygon fill="#9eadbf" stroke="#9eadbf" points="294.704,-182.223 303.491,-176.303 292.93,-175.451 294.704,-182.223"/>
</g>
<!-- TECH_MINING&#45;&gt;TECH_MASONRY -->
<g id="edge4" class="edge"><title>TECH_MINING&#45;&gt;TECH_MASONRY</title>
<path fill="none" stroke="#21bff7" d="M208.657,-227.141C222.802,-236.306 241.019,-246.293 259,-251 328.653,-269.234 349.93,-262.533 421,-251 435.026,-248.724 449.875,-244.441 463.124,-239.897"/>
<polygon fill="#21bff7" stroke="#21bff7" points="464.666,-243.063 472.903,-236.4 462.309,-236.471 464.666,-243.063"/>
</g>
<!-- TECH_THE_WHEEL -->
<g id="node16" class="node"><title>TECH_THE_WHEEL</title>
<path fill="none" stroke="#21bff7" d="M521,-186C521,-186 491,-186 491,-186 485,-186 479,-180 479,-174 479,-174 479,-160 479,-160 479,-154 485,-148 491,-148 491,-148 521,-148 521,-148 527,-148 533,-154 533,-160 533,-160 533,-174 533,-174 533,-180 527,-186 521,-186"/>
<text text-anchor="middle" x="506" y="-170.8" font-family="Times New Roman,serif" font-size="14.00">Wheel</text>
<text text-anchor="middle" x="506" y="-155.8" font-family="Times New Roman,serif" font-size="14.00">80S</text>
</g>
<!-- TECH_MINING&#45;&gt;TECH_THE_WHEEL -->
<g id="edge5" class="edge"><title>TECH_MINING&#45;&gt;TECH_THE_WHEEL</title>
<path fill="none" stroke="#21bff7" d="M196.743,-188.899C210.537,-172.143 233.123,-148.946 259,-139 329.944,-111.732 420.244,-135.49 469.317,-152.795"/>
<polygon fill="#21bff7" stroke="#21bff7" points="468.258,-156.134 478.852,-156.261 470.649,-149.555 468.258,-156.134"/>
</g>
<!-- BOOST_CIVIC_FOREIGN_TRADE -->
<g id="node5" class="node"><title>BOOST_CIVIC_FOREIGN_TRADE</title>
<path fill="none" stroke="#9eadbf" d="M409,-465C409,-465 271,-465 271,-465 265,-465 259,-459 259,-453 259,-453 259,-441 259,-441 259,-435 265,-429 271,-429 271,-429 409,-429 409,-429 415,-429 421,-435 421,-441 421,-441 421,-453 421,-453 421,-459 415,-465 409,-465"/>
<text text-anchor="middle" x="340" y="-443.3" font-family="Times New Roman,serif" font-size="14.00">New continent discovered</text>
</g>
<!-- CIVIC_FOREIGN_TRADE -->
<g id="node18" class="node"><title>CIVIC_FOREIGN_TRADE</title>
<path fill="none" stroke="#e800e8" d="M542,-466C542,-466 470,-466 470,-466 464,-466 458,-460 458,-454 458,-454 458,-440 458,-440 458,-434 464,-428 470,-428 470,-428 542,-428 542,-428 548,-428 554,-434 554,-440 554,-440 554,-454 554,-454 554,-460 548,-466 542,-466"/>
<text text-anchor="middle" x="506" y="-450.8" font-family="Times New Roman,serif" font-size="14.00">Foreign Trade</text>
<text text-anchor="middle" x="506" y="-435.8" font-family="Times New Roman,serif" font-size="14.00">40C</text>
</g>
<!-- BOOST_CIVIC_FOREIGN_TRADE&#45;&gt;CIVIC_FOREIGN_TRADE -->
<g id="edge8" class="edge"><title>BOOST_CIVIC_FOREIGN_TRADE&#45;&gt;CIVIC_FOREIGN_TRADE</title>
<path fill="none" stroke="#9eadbf" stroke-dasharray="5,2" d="M421.078,-447C429.98,-447 438.913,-447 447.455,-447"/>
<polygon fill="#9eadbf" stroke="#9eadbf" points="447.654,-450.5 457.654,-447 447.654,-443.5 447.654,-450.5"/>
</g>
<!-- BOOST_CIVIC_STATE_WORKFORCE -->
<g id="node6" class="node"><title>BOOST_CIVIC_STATE_WORKFORCE</title>
<path fill="none" stroke="#9eadbf" d="M536.5,-354C536.5,-354 475.5,-354 475.5,-354 469.5,-354 463.5,-348 463.5,-342 463.5,-342 463.5,-328 463.5,-328 463.5,-322 469.5,-316 475.5,-316 475.5,-316 536.5,-316 536.5,-316 542.5,-316 548.5,-322 548.5,-328 548.5,-328 548.5,-342 548.5,-342 548.5,-348 542.5,-354 536.5,-354"/>
<text text-anchor="middle" x="506" y="-338.8" font-family="Times New Roman,serif" font-size="14.00">District built</text>
<text text-anchor="middle" x="506" y="-323.8" font-family="Times New Roman,serif" font-size="14.00">54P</text>
</g>
<!-- CIVIC_STATE_WORKFORCE -->
<g id="node10" class="node"><title>CIVIC_STATE_WORKFORCE</title>
<path fill="none" stroke="#e800e8" d="M695,-322C695,-322 609,-322 609,-322 603,-322 597,-316 597,-310 597,-310 597,-296 597,-296 597,-290 603,-284 609,-284 609,-284 695,-284 695,-284 701,-284 707,-290 707,-296 707,-296 707,-310 707,-310 707,-316 701,-322 695,-322"/>
<text text-anchor="middle" x="652" y="-306.8" font-family="Times New Roman,serif" font-size="14.00">State Workforce</text>
<text text-anchor="middle" x="652" y="-291.8" font-family="Times New Roman,serif" font-size="14.00">70C</text>
</g>
<!-- BOOST_CIVIC_STATE_WORKFORCE&#45;&gt;CIVIC_STATE_WORKFORCE -->
<g id="edge9" class="edge"><title>BOOST_CIVIC_STATE_WORKFORCE&#45;&gt;CIVIC_STATE_WORKFORCE</title>
<path fill="none" stroke="#9eadbf" stroke-dasharray="5,2" d="M548.651,-325.744C560.631,-323.082 573.984,-320.115 586.986,-317.225"/>
<polygon fill="#9eadbf" stroke="#9eadbf" points="587.828,-320.624 596.831,-315.038 586.31,-313.79 587.828,-320.624"/>
</g>
<!-- BOOST_TECH_CONSTRUCTION -->
<g id="node7" class="node"><title>BOOST_TECH_CONSTRUCTION</title>
<path fill="none" stroke="#9eadbf" d="M852.5,-195C852.5,-195 773.5,-195 773.5,-195 767.5,-195 761.5,-189 761.5,-183 761.5,-183 761.5,-171 761.5,-171 761.5,-165 767.5,-159 773.5,-159 773.5,-159 852.5,-159 852.5,-159 858.5,-159 864.5,-165 864.5,-171 864.5,-171 864.5,-183 864.5,-183 864.5,-189 858.5,-195 852.5,-195"/>
<text text-anchor="middle" x="813" y="-173.3" font-family="Times New Roman,serif" font-size="14.00">Water Mill built</text>
</g>
<!-- TECH_CONSTRUCTION -->
<g id="node21" class="node"><title>TECH_CONSTRUCTION</title>
<path fill="none" stroke="#21bff7" d="M990,-206C990,-206 925,-206 925,-206 919,-206 913,-200 913,-194 913,-194 913,-180 913,-180 913,-174 919,-168 925,-168 925,-168 990,-168 990,-168 996,-168 1002,-174 1002,-180 1002,-180 1002,-194 1002,-194 1002,-200 996,-206 990,-206"/>
<text text-anchor="middle" x="957.5" y="-190.8" font-family="Times New Roman,serif" font-size="14.00">Construction</text>
<text text-anchor="middle" x="957.5" y="-175.8" font-family="Times New Roman,serif" font-size="14.00">200S</text>
</g>
<!-- BOOST_TECH_CONSTRUCTION&#45;&gt;TECH_CONSTRUCTION -->
<g id="edge10" class="edge"><title>BOOST_TECH_CONSTRUCTION&#45;&gt;TECH_CONSTRUCTION</title>
<path fill="none" stroke="#9eadbf" stroke-dasharray="5,2" d="M864.641,-180.554C876.891,-181.413 890.03,-182.335 902.43,-183.206"/>
<polygon fill="#9eadbf" stroke="#9eadbf" points="902.417,-186.713 912.637,-183.922 902.907,-179.73 902.417,-186.713"/>
</g>
<!-- CIVIC_GAMES_RECREATION -->
<g id="node8" class="node"><title>CIVIC_GAMES_RECREATION</title>
<path fill="none" stroke="#e800e8" d="M1358,-216C1358,-216 1239,-216 1239,-216 1233,-216 1227,-210 1227,-204 1227,-204 1227,-190 1227,-190 1227,-184 1233,-178 1239,-178 1239,-178 1358,-178 1358,-178 1364,-178 1370,-184 1370,-190 1370,-190 1370,-204 1370,-204 1370,-210 1364,-216 1358,-216"/>
<text text-anchor="middle" x="1298.5" y="-200.8" font-family="Times New Roman,serif" font-size="14.00">Games and Recreation</text>
<text text-anchor="middle" x="1298.5" y="-185.8" font-family="Times New Roman,serif" font-size="14.00">110C</text>
</g>
<!-- CIVIC_DEFENSIVE_TACTICS -->
<g id="node32" class="node"><title>CIVIC_DEFENSIVE_TACTICS</title>
<path fill="none" stroke="#e800e8" d="M1510,-216C1510,-216 1418,-216 1418,-216 1412,-216 1406,-210 1406,-204 1406,-204 1406,-190 1406,-190 1406,-184 1412,-178 1418,-178 1418,-178 1510,-178 1510,-178 1516,-178 1522,-184 1522,-190 1522,-190 1522,-204 1522,-204 1522,-210 1516,-216 1510,-216"/>
<text text-anchor="middle" x="1464" y="-200.8" font-family="Times New Roman,serif" font-size="14.00">Defensive Tactics</text>
<text text-anchor="middle" x="1464" y="-185.8" font-family="Times New Roman,serif" font-size="14.00">175C</text>
</g>
<!-- CIVIC_GAMES_RECREATION&#45;&gt;CIVIC_DEFENSIVE_TACTICS -->
<g id="edge11" class="edge"><title>CIVIC_GAMES_RECREATION&#45;&gt;CIVIC_DEFENSIVE_TACTICS</title>
<path fill="none" stroke="#e800e8" d="M1370.26,-197C1378.73,-197 1387.36,-197 1395.77,-197"/>
<polygon fill="#e800e8" stroke="#e800e8" points="1395.91,-200.5 1405.91,-197 1395.91,-193.5 1395.91,-200.5"/>
</g>
<!-- BOOST_TECH_THE_WHEEL&#45;&gt;TECH_THE_WHEEL -->
<g id="edge12" class="edge"><title>BOOST_TECH_THE_WHEEL&#45;&gt;TECH_THE_WHEEL</title>
<path fill="none" stroke="#9eadbf" stroke-dasharray="5,2" d="M376.586,-167C403.781,-167 441.133,-167 468.542,-167"/>
<polygon fill="#9eadbf" stroke="#9eadbf" points="468.885,-170.5 478.885,-167 468.885,-163.5 468.885,-170.5"/>
</g>
<!-- CIVIC_STATE_WORKFORCE&#45;&gt;CIVIC_GAMES_RECREATION -->
<g id="edge13" class="edge"><title>CIVIC_STATE_WORKFORCE&#45;&gt;CIVIC_GAMES_RECREATION</title>
<path fill="none" stroke="#e800e8" d="M707.117,-294.099C820.444,-275.461 1083.23,-232.24 1216.66,-210.296"/>
<polygon fill="#e800e8" stroke="#e800e8" points="1217.52,-213.702 1226.82,-208.625 1216.38,-206.795 1217.52,-213.702"/>
</g>
<!-- CIVIC_POLITICAL_PHILOSOPHY -->
<g id="node19" class="node"><title>CIVIC_POLITICAL_PHILOSOPHY</title>
<path fill="none" stroke="#e800e8" d="M865,-346C865,-346 761,-346 761,-346 755,-346 749,-340 749,-334 749,-334 749,-320 749,-320 749,-314 755,-308 761,-308 761,-308 865,-308 865,-308 871,-308 877,-314 877,-320 877,-320 877,-334 877,-334 877,-340 871,-346 865,-346"/>
<text text-anchor="middle" x="813" y="-330.8" font-family="Times New Roman,serif" font-size="14.00">Political Philosophy</text>
<text text-anchor="middle" x="813" y="-315.8" font-family="Times New Roman,serif" font-size="14.00">110C</text>
</g>
<!-- CIVIC_STATE_WORKFORCE&#45;&gt;CIVIC_POLITICAL_PHILOSOPHY -->
<g id="edge14" class="edge"><title>CIVIC_STATE_WORKFORCE&#45;&gt;CIVIC_POLITICAL_PHILOSOPHY</title>
<path fill="none" stroke="#e800e8" d="M707.274,-311.192C717.432,-312.726 728.203,-314.351 738.823,-315.954"/>
<polygon fill="#e800e8" stroke="#e800e8" points="738.523,-319.449 748.933,-317.48 739.568,-312.527 738.523,-319.449"/>
</g>
<!-- BOOST_CIVIC_EARLY_EMPIRE -->
<g id="node11" class="node"><title>BOOST_CIVIC_EARLY_EMPIRE</title>
<path fill="none" stroke="#9eadbf" d="M542.5,-410C542.5,-410 469.5,-410 469.5,-410 463.5,-410 457.5,-404 457.5,-398 457.5,-398 457.5,-384 457.5,-384 457.5,-378 463.5,-372 469.5,-372 469.5,-372 542.5,-372 542.5,-372 548.5,-372 554.5,-378 554.5,-384 554.5,-384 554.5,-398 554.5,-398 554.5,-404 548.5,-410 542.5,-410"/>
<text text-anchor="middle" x="506" y="-394.8" font-family="Times New Roman,serif" font-size="14.00">6 pop reached</text>
<text text-anchor="middle" x="506" y="-379.8" font-family="Times New Roman,serif" font-size="14.00">80F</text>
</g>
<!-- CIVIC_EARLY_EMPIRE -->
<g id="node29" class="node"><title>CIVIC_EARLY_EMPIRE</title>
<path fill="none" stroke="#e800e8" d="M684.5,-410C684.5,-410 619.5,-410 619.5,-410 613.5,-410 607.5,-404 607.5,-398 607.5,-398 607.5,-384 607.5,-384 607.5,-378 613.5,-372 619.5,-372 619.5,-372 684.5,-372 684.5,-372 690.5,-372 696.5,-378 696.5,-384 696.5,-384 696.5,-398 696.5,-398 696.5,-404 690.5,-410 684.5,-410"/>
<text text-anchor="middle" x="652" y="-394.8" font-family="Times New Roman,serif" font-size="14.00">Early Empire</text>
<text text-anchor="middle" x="652" y="-379.8" font-family="Times New Roman,serif" font-size="14.00">70C</text>
</g>
<!-- BOOST_CIVIC_EARLY_EMPIRE&#45;&gt;CIVIC_EARLY_EMPIRE -->
<g id="edge15" class="edge"><title>BOOST_CIVIC_EARLY_EMPIRE&#45;&gt;CIVIC_EARLY_EMPIRE</title>
<path fill="none" stroke="#9eadbf" stroke-dasharray="5,2" d="M554.55,-391C568.262,-391 583.316,-391 597.369,-391"/>
<polygon fill="#9eadbf" stroke="#9eadbf" points="597.392,-394.5 607.392,-391 597.392,-387.5 597.392,-394.5"/>
</g>
<!-- TECH_MASONRY&#45;&gt;TECH_CONSTRUCTION -->
<g id="edge16" class="edge"><title>TECH_MASONRY&#45;&gt;TECH_CONSTRUCTION</title>
<path fill="none" stroke="#21bff7" d="M539.327,-223.066C603.826,-222.818 752.968,-220.34 877,-204 885.448,-202.887 894.334,-201.353 902.98,-199.66"/>
<polygon fill="#21bff7" stroke="#21bff7" points="903.884,-203.047 912.979,-197.613 902.481,-196.189 903.884,-203.047"/>
</g>
<!-- BOOST_TECH_STIRRUPS -->
<g id="node35" class="node"><title>BOOST_TECH_STIRRUPS</title>
<path fill="none" stroke="#9eadbf" d="M1795,-209C1795,-209 1680,-209 1680,-209 1674,-209 1668,-203 1668,-197 1668,-197 1668,-185 1668,-185 1668,-179 1674,-173 1680,-173 1680,-173 1795,-173 1795,-173 1801,-173 1807,-179 1807,-185 1807,-185 1807,-197 1807,-197 1807,-203 1801,-209 1795,-209"/>
<text text-anchor="middle" x="1737.5" y="-187.3" font-family="Times New Roman,serif" font-size="14.00">Feudalism culturvated</text>
</g>
<!-- CIVIC_FEUDALISM&#45;&gt;BOOST_TECH_STIRRUPS -->
<g id="edge17" class="edge"><title>CIVIC_FEUDALISM&#45;&gt;BOOST_TECH_STIRRUPS</title>
<path fill="none" stroke="#9eadbf" d="M1632.18,-195.455C1640.16,-195.114 1648.91,-194.741 1657.84,-194.359"/>
<polygon fill="#9eadbf" stroke="#9eadbf" points="1658.13,-197.85 1667.97,-193.927 1657.83,-190.857 1658.13,-197.85"/>
</g>
<!-- BUILDING_WATER_MILL -->
<g id="node14" class="node"><title>BUILDING_WATER_MILL</title>
<path fill="none" stroke="#c78733" d="M677.5,-195C677.5,-195 626.5,-195 626.5,-195 620.5,-195 614.5,-189 614.5,-183 614.5,-183 614.5,-169 614.5,-169 614.5,-163 620.5,-157 626.5,-157 626.5,-157 677.5,-157 677.5,-157 683.5,-157 689.5,-163 689.5,-169 689.5,-169 689.5,-183 689.5,-183 689.5,-189 683.5,-195 677.5,-195"/>
<text text-anchor="middle" x="652" y="-179.8" font-family="Times New Roman,serif" font-size="14.00">Water Mill</text>
<text text-anchor="middle" x="652" y="-164.8" font-family="Times New Roman,serif" font-size="14.00">80P</text>
</g>
<!-- BUILDING_WATER_MILL&#45;&gt;BOOST_TECH_CONSTRUCTION -->
<g id="edge18" class="edge"><title>BUILDING_WATER_MILL&#45;&gt;BOOST_TECH_CONSTRUCTION</title>
<path fill="none" stroke="#9eadbf" d="M689.877,-176.232C708.168,-176.347 730.732,-176.489 751.467,-176.619"/>
<polygon fill="#9eadbf" stroke="#9eadbf" points="751.451,-180.119 761.473,-176.682 751.495,-173.119 751.451,-180.119"/>
</g>
<!-- TECH_HORSEBACK_RIDING -->
<g id="node15" class="node"><title>TECH_HORSEBACK_RIDING</title>
<path fill="none" stroke="#21bff7" d="M860,-140C860,-140 766,-140 766,-140 760,-140 754,-134 754,-128 754,-128 754,-114 754,-114 754,-108 760,-102 766,-102 766,-102 860,-102 860,-102 866,-102 872,-108 872,-114 872,-114 872,-128 872,-128 872,-134 866,-140 860,-140"/>
<text text-anchor="middle" x="813" y="-124.8" font-family="Times New Roman,serif" font-size="14.00">Horseback Riding</text>
<text text-anchor="middle" x="813" y="-109.8" font-family="Times New Roman,serif" font-size="14.00">120S</text>
</g>
<!-- TECH_HORSEBACK_RIDING&#45;&gt;TECH_CONSTRUCTION -->
<g id="edge19" class="edge"><title>TECH_HORSEBACK_RIDING&#45;&gt;TECH_CONSTRUCTION</title>
<path fill="none" stroke="#21bff7" d="M855.355,-140.006C862.573,-143.332 870.007,-146.763 877,-150 886.527,-154.41 896.691,-159.129 906.456,-163.67"/>
<polygon fill="#21bff7" stroke="#21bff7" points="905.12,-166.909 915.663,-167.954 908.073,-160.562 905.12,-166.909"/>
</g>
<!-- TECH_STIRRUPS -->
<g id="node22" class="node"><title>TECH_STIRRUPS</title>
<path fill="none" stroke="#21bff7" d="M1892,-184C1892,-184 1855,-184 1855,-184 1849,-184 1843,-178 1843,-172 1843,-172 1843,-158 1843,-158 1843,-152 1849,-146 1855,-146 1855,-146 1892,-146 1892,-146 1898,-146 1904,-152 1904,-158 1904,-158 1904,-172 1904,-172 1904,-178 1898,-184 1892,-184"/>
<text text-anchor="middle" x="1873.5" y="-168.8" font-family="Times New Roman,serif" font-size="14.00">Stirrups</text>
<text text-anchor="middle" x="1873.5" y="-153.8" font-family="Times New Roman,serif" font-size="14.00">390S</text>
</g>
<!-- TECH_HORSEBACK_RIDING&#45;&gt;TECH_STIRRUPS -->
<g id="edge20" class="edge"><title>TECH_HORSEBACK_RIDING&#45;&gt;TECH_STIRRUPS</title>
<path fill="none" stroke="#21bff7" d="M872.187,-126.882C932.483,-132.462 1029.49,-140 1113.5,-140 1113.5,-140 1113.5,-140 1596,-140 1680.5,-140 1778.94,-151.724 1832.59,-159.115"/>
<polygon fill="#21bff7" stroke="#21bff7" points="1832.32,-162.611 1842.71,-160.531 1833.29,-155.678 1832.32,-162.611"/>
</g>
<!-- TECH_THE_WHEEL&#45;&gt;BUILDING_WATER_MILL -->
<g id="edge21" class="edge"><title>TECH_THE_WHEEL&#45;&gt;BUILDING_WATER_MILL</title>
<path fill="none" stroke="#c78733" d="M533.077,-168.63C552.846,-169.865 580.54,-171.596 604.124,-173.07"/>
<polygon fill="#c78733" stroke="#c78733" points="604.085,-176.575 614.284,-173.705 604.522,-169.588 604.085,-176.575"/>
</g>
<!-- BOOST_CIVIC_DEFENSIVE_TACTICS -->
<g id="node17" class="node"><title>BOOST_CIVIC_DEFENSIVE_TACTICS</title>
<path fill="none" stroke="#9eadbf" d="M1335.5,-270C1335.5,-270 1261.5,-270 1261.5,-270 1255.5,-270 1249.5,-264 1249.5,-258 1249.5,-258 1249.5,-246 1249.5,-246 1249.5,-240 1255.5,-234 1261.5,-234 1261.5,-234 1335.5,-234 1335.5,-234 1341.5,-234 1347.5,-240 1347.5,-246 1347.5,-246 1347.5,-258 1347.5,-258 1347.5,-264 1341.5,-270 1335.5,-270"/>
<text text-anchor="middle" x="1298.5" y="-248.3" font-family="Times New Roman,serif" font-size="14.00">DoW received</text>
</g>
<!-- BOOST_CIVIC_DEFENSIVE_TACTICS&#45;&gt;CIVIC_DEFENSIVE_TACTICS -->
<g id="edge22" class="edge"><title>BOOST_CIVIC_DEFENSIVE_TACTICS&#45;&gt;CIVIC_DEFENSIVE_TACTICS</title>
<path fill="none" stroke="#9eadbf" stroke-dasharray="5,2" d="M1347.67,-235.796C1363.03,-230.63 1380.29,-224.822 1396.7,-219.303"/>
<polygon fill="#9eadbf" stroke="#9eadbf" points="1397.88,-222.6 1406.24,-216.094 1395.64,-215.965 1397.88,-222.6"/>
</g>
<!-- CIVIC_FOREIGN_TRADE&#45;&gt;CIVIC_EARLY_EMPIRE -->
<g id="edge23" class="edge"><title>CIVIC_FOREIGN_TRADE&#45;&gt;CIVIC_EARLY_EMPIRE</title>
<path fill="none" stroke="#e800e8" d="M554.151,-428.664C568.013,-423.273 583.276,-417.337 597.504,-411.804"/>
<polygon fill="#e800e8" stroke="#e800e8" points="599.108,-414.936 607.16,-408.049 596.571,-408.411 599.108,-414.936"/>
</g>
<!-- CIVIC_POLITICAL_PHILOSOPHY&#45;&gt;CIVIC_DEFENSIVE_TACTICS -->
<g id="edge24" class="edge"><title>CIVIC_POLITICAL_PHILOSOPHY&#45;&gt;CIVIC_DEFENSIVE_TACTICS</title>
<path fill="none" stroke="#e800e8" d="M877.234,-338.215C986.272,-354.13 1213.05,-371.904 1370,-279 1394.82,-264.307 1384.31,-244.013 1406,-225 1407.28,-223.876 1408.62,-222.785 1410,-221.728"/>
<polygon fill="#e800e8" stroke="#e800e8" points="1412.01,-224.592 1418.27,-216.044 1408.04,-218.823 1412.01,-224.592"/>
</g>
<!-- SETTLE_FIRST_CITY -->
<g id="node20" class="node"><title>SETTLE_FIRST_CITY</title>
<path fill="none" stroke="Black" d="M92,-226C92,-226 12,-226 12,-226 6,-226 0,-220 0,-214 0,-214 0,-202 0,-202 0,-196 6,-190 12,-190 12,-190 92,-190 92,-190 98,-190 104,-196 104,-202 104,-202 104,-214 104,-214 104,-220 98,-226 92,-226"/>
<text text-anchor="middle" x="52" y="-204.3" font-family="Times New Roman,serif" font-size="14.00">Settle First City</text>
</g>
<!-- SETTLE_FIRST_CITY&#45;&gt;TECH_MINING -->
<g id="edge27" class="edge"><title>SETTLE_FIRST_CITY&#45;&gt;TECH_MINING</title>
<path fill="none" stroke="#21bff7" d="M104.124,-208C117.306,-208 131.238,-208 143.542,-208"/>
<polygon fill="#21bff7" stroke="#21bff7" points="143.876,-211.5 153.876,-208 143.876,-204.5 143.876,-211.5"/>
</g>
<!-- TECH_ANIMAL_HUSBANDRY -->
<g id="node24" class="node"><title>TECH_ANIMAL_HUSBANDRY</title>
<path fill="none" stroke="#21bff7" d="M388.5,-92C388.5,-92 291.5,-92 291.5,-92 285.5,-92 279.5,-86 279.5,-80 279.5,-80 279.5,-66 279.5,-66 279.5,-60 285.5,-54 291.5,-54 291.5,-54 388.5,-54 388.5,-54 394.5,-54 400.5,-60 400.5,-66 400.5,-66 400.5,-80 400.5,-80 400.5,-86 394.5,-92 388.5,-92"/>
<text text-anchor="middle" x="340" y="-76.8" font-family="Times New Roman,serif" font-size="14.00">Animal Husbandry</text>
<text text-anchor="middle" x="340" y="-61.8" font-family="Times New Roman,serif" font-size="14.00">25S</text>
</g>
<!-- SETTLE_FIRST_CITY&#45;&gt;TECH_ANIMAL_HUSBANDRY -->
<g id="edge26" class="edge"><title>SETTLE_FIRST_CITY&#45;&gt;TECH_ANIMAL_HUSBANDRY</title>
<path fill="none" stroke="#21bff7" d="M91.2745,-189.933C142.46,-165.772 233.273,-122.906 289.578,-96.3285"/>
<polygon fill="#21bff7" stroke="#21bff7" points="291.099,-99.481 298.648,-92.0472 288.111,-93.1508 291.099,-99.481"/>
</g>
<!-- CIVIC_CODE_OF_LAWS -->
<g id="node26" class="node"><title>CIVIC_CODE_OF_LAWS</title>
<path fill="none" stroke="#e800e8" d="M376.5,-392C376.5,-392 303.5,-392 303.5,-392 297.5,-392 291.5,-386 291.5,-380 291.5,-380 291.5,-366 291.5,-366 291.5,-360 297.5,-354 303.5,-354 303.5,-354 376.5,-354 376.5,-354 382.5,-354 388.5,-360 388.5,-366 388.5,-366 388.5,-380 388.5,-380 388.5,-386 382.5,-392 376.5,-392"/>
<text text-anchor="middle" x="340" y="-376.8" font-family="Times New Roman,serif" font-size="14.00">Code of Laws</text>
<text text-anchor="middle" x="340" y="-361.8" font-family="Times New Roman,serif" font-size="14.00">20C</text>
</g>
<!-- SETTLE_FIRST_CITY&#45;&gt;CIVIC_CODE_OF_LAWS -->
<g id="edge25" class="edge"><title>SETTLE_FIRST_CITY&#45;&gt;CIVIC_CODE_OF_LAWS</title>
<path fill="none" stroke="#e800e8" d="M75.9291,-226.059C112.782,-254.419 188.248,-309.789 259,-345 266.212,-348.589 273.997,-351.923 281.781,-354.948"/>
<polygon fill="#e800e8" stroke="#e800e8" points="280.644,-358.259 291.237,-358.48 283.094,-351.702 280.644,-358.259"/>
</g>
<!-- UNIT_SCOUT -->
<g id="node30" class="node"><title>UNIT_SCOUT</title>
<path fill="none" stroke="#9eadbf" d="M208,-466C208,-466 155,-466 155,-466 149,-466 143,-460 143,-454 143,-454 143,-440 143,-440 143,-434 149,-428 155,-428 155,-428 208,-428 208,-428 214,-428 220,-434 220,-440 220,-440 220,-454 220,-454 220,-460 214,-466 208,-466"/>
<text text-anchor="middle" x="181.5" y="-450.8" font-family="Times New Roman,serif" font-size="14.00">Scout built</text>
<text text-anchor="middle" x="181.5" y="-435.8" font-family="Times New Roman,serif" font-size="14.00">30P</text>
</g>
<!-- SETTLE_FIRST_CITY&#45;&gt;UNIT_SCOUT -->
<g id="edge28" class="edge"><title>SETTLE_FIRST_CITY&#45;&gt;UNIT_SCOUT</title>
<path fill="none" stroke="#9eadbf" d="M62.793,-226.357C84.9794,-267.946 139.193,-369.569 165.581,-419.035"/>
<polygon fill="#9eadbf" stroke="#9eadbf" points="162.526,-420.743 170.321,-427.919 168.702,-417.448 162.526,-420.743"/>
</g>
<!-- UNIT_SLINGER -->
<g id="node33" class="node"><title>UNIT_SLINGER</title>
<path fill="none" stroke="#9eadbf" d="M211,-52C211,-52 152,-52 152,-52 146,-52 140,-46 140,-40 140,-40 140,-26 140,-26 140,-20 146,-14 152,-14 152,-14 211,-14 211,-14 217,-14 223,-20 223,-26 223,-26 223,-40 223,-40 223,-46 217,-52 211,-52"/>
<text text-anchor="middle" x="181.5" y="-36.8" font-family="Times New Roman,serif" font-size="14.00">Slinger built</text>
<text text-anchor="middle" x="181.5" y="-21.8" font-family="Times New Roman,serif" font-size="14.00">35P</text>
</g>
<!-- SETTLE_FIRST_CITY&#45;&gt;UNIT_SLINGER -->
<g id="edge29" class="edge"><title>SETTLE_FIRST_CITY&#45;&gt;UNIT_SLINGER</title>
<path fill="none" stroke="#9eadbf" d="M66.1645,-189.931C88.6065,-159.128 134.391,-96.287 160.705,-60.1695"/>
<polygon fill="#9eadbf" stroke="#9eadbf" points="163.577,-62.172 166.636,-52.0286 157.919,-58.0499 163.577,-62.172"/>
</g>
<!-- BOOST_CIVIC_GAMES_RECREATION -->
<g id="node34" class="node"><title>BOOST_CIVIC_GAMES_RECREATION</title>
<path fill="none" stroke="#9eadbf" d="M1179,-205C1179,-205 1050,-205 1050,-205 1044,-205 1038,-199 1038,-193 1038,-193 1038,-181 1038,-181 1038,-175 1044,-169 1050,-169 1050,-169 1179,-169 1179,-169 1185,-169 1191,-175 1191,-181 1191,-181 1191,-193 1191,-193 1191,-199 1185,-205 1179,-205"/>
<text text-anchor="middle" x="1114.5" y="-183.3" font-family="Times New Roman,serif" font-size="14.00">Construction researched</text>
</g>
<!-- TECH_CONSTRUCTION&#45;&gt;BOOST_CIVIC_GAMES_RECREATION -->
<g id="edge30" class="edge"><title>TECH_CONSTRUCTION&#45;&gt;BOOST_CIVIC_GAMES_RECREATION</title>
<path fill="none" stroke="#9eadbf" d="M1002.09,-187C1010.22,-187 1018.97,-187 1027.87,-187"/>
<polygon fill="#9eadbf" stroke="#9eadbf" points="1027.95,-190.5 1037.95,-187 1027.95,-183.5 1027.95,-190.5"/>
</g>
<!-- BOOST_CIVIC_POLITICAL_PHILOSOPHY -->
<g id="node23" class="node"><title>BOOST_CIVIC_POLITICAL_PHILOSOPHY</title>
<path fill="none" stroke="#9eadbf" d="M701,-488C701,-488 603,-488 603,-488 597,-488 591,-482 591,-476 591,-476 591,-464 591,-464 591,-458 597,-452 603,-452 603,-452 701,-452 701,-452 707,-452 713,-458 713,-464 713,-464 713,-476 713,-476 713,-482 707,-488 701,-488"/>
<text text-anchor="middle" x="652" y="-466.3" font-family="Times New Roman,serif" font-size="14.00">3 City states found</text>
</g>
<!-- BOOST_CIVIC_POLITICAL_PHILOSOPHY&#45;&gt;CIVIC_POLITICAL_PHILOSOPHY -->
<g id="edge31" class="edge"><title>BOOST_CIVIC_POLITICAL_PHILOSOPHY&#45;&gt;CIVIC_POLITICAL_PHILOSOPHY</title>
<path fill="none" stroke="#9eadbf" stroke-dasharray="5,2" d="M674.861,-451.816C686.323,-442.183 700.534,-430.081 713,-419 737.461,-397.257 764.657,-371.896 784.345,-353.314"/>
<polygon fill="#9eadbf" stroke="#9eadbf" points="786.905,-355.711 791.765,-346.297 782.095,-350.625 786.905,-355.711"/>
</g>
<!-- TECH_ARCHERY -->
<g id="node27" class="node"><title>TECH_ARCHERY</title>
<path fill="none" stroke="#21bff7" d="M525,-92C525,-92 487,-92 487,-92 481,-92 475,-86 475,-80 475,-80 475,-66 475,-66 475,-60 481,-54 487,-54 487,-54 525,-54 525,-54 531,-54 537,-60 537,-66 537,-66 537,-80 537,-80 537,-86 531,-92 525,-92"/>
<text text-anchor="middle" x="506" y="-76.8" font-family="Times New Roman,serif" font-size="14.00">Archery</text>
<text text-anchor="middle" x="506" y="-61.8" font-family="Times New Roman,serif" font-size="14.00">50S</text>
</g>
<!-- TECH_ANIMAL_HUSBANDRY&#45;&gt;TECH_ARCHERY -->
<g id="edge32" class="edge"><title>TECH_ANIMAL_HUSBANDRY&#45;&gt;TECH_ARCHERY</title>
<path fill="none" stroke="#21bff7" d="M400.672,-73C421.845,-73 445.168,-73 464.383,-73"/>
<polygon fill="#21bff7" stroke="#21bff7" points="464.596,-76.5001 474.596,-73 464.596,-69.5001 464.596,-76.5001"/>
</g>
<!-- BOOST_TECH_HORSEBACK_RIDING -->
<g id="node28" class="node"><title>BOOST_TECH_HORSEBACK_RIDING</title>
<path fill="none" stroke="#9eadbf" d="M686,-139C686,-139 618,-139 618,-139 612,-139 606,-133 606,-127 606,-127 606,-113 606,-113 606,-107 612,-101 618,-101 618,-101 686,-101 686,-101 692,-101 698,-107 698,-113 698,-113 698,-127 698,-127 698,-133 692,-139 686,-139"/>
<text text-anchor="middle" x="652" y="-123.8" font-family="Times New Roman,serif" font-size="14.00">Pasture made</text>
<text text-anchor="middle" x="652" y="-108.8" font-family="Times New Roman,serif" font-size="14.00">20P</text>
</g>
<!-- TECH_ANIMAL_HUSBANDRY&#45;&gt;BOOST_TECH_HORSEBACK_RIDING -->
<g id="edge33" class="edge"><title>TECH_ANIMAL_HUSBANDRY&#45;&gt;BOOST_TECH_HORSEBACK_RIDING</title>
<path fill="none" stroke="#9eadbf" d="M400.579,-89.0632C418.599,-93.4654 438.512,-97.879 457,-101 503.408,-108.834 556.647,-113.764 595.599,-116.633"/>
<polygon fill="#9eadbf" stroke="#9eadbf" points="595.461,-120.132 605.685,-117.353 595.959,-113.149 595.461,-120.132"/>
</g>
<!-- BOOST_TECH_ARCHERY -->
<g id="node25" class="node"><title>BOOST_TECH_ARCHERY</title>
<path fill="none" stroke="#9eadbf" d="M382,-36C382,-36 298,-36 298,-36 292,-36 286,-30 286,-24 286,-24 286,-12 286,-12 286,-6 292,-0 298,-0 298,-0 382,-0 382,-0 388,-0 394,-6 394,-12 394,-12 394,-24 394,-24 394,-30 388,-36 382,-36"/>
<text text-anchor="middle" x="340" y="-14.3" font-family="Times New Roman,serif" font-size="14.00">Slinger kill made</text>
</g>
<!-- BOOST_TECH_ARCHERY&#45;&gt;TECH_ARCHERY -->
<g id="edge34" class="edge"><title>BOOST_TECH_ARCHERY&#45;&gt;TECH_ARCHERY</title>
<path fill="none" stroke="#9eadbf" stroke-dasharray="5,2" d="M394.246,-35.8569C417.338,-43.6013 443.914,-52.5138 465.244,-59.6671"/>
<polygon fill="#9eadbf" stroke="#9eadbf" points="464.354,-63.0603 474.948,-62.9217 466.58,-56.4236 464.354,-63.0603"/>
</g>
<!-- CIVIC_CODE_OF_LAWS&#45;&gt;CIVIC_FOREIGN_TRADE -->
<g id="edge36" class="edge"><title>CIVIC_CODE_OF_LAWS&#45;&gt;CIVIC_FOREIGN_TRADE</title>
<path fill="none" stroke="#e800e8" d="M383.234,-392.057C404.671,-401.73 430.893,-413.562 453.505,-423.765"/>
<polygon fill="#e800e8" stroke="#e800e8" points="452.07,-426.957 462.624,-427.879 454.949,-420.576 452.07,-426.957"/>
</g>
<!-- CIVIC_CODE_OF_LAWS&#45;&gt;CIVIC_CRAFTSMANSHIP -->
<g id="edge35" class="edge"><title>CIVIC_CODE_OF_LAWS&#45;&gt;CIVIC_CRAFTSMANSHIP</title>
<path fill="none" stroke="#e800e8" d="M388.852,-360.414C399.888,-356.402 411.242,-351.318 421,-345 440.529,-332.357 438.768,-321.451 457,-307 458.351,-305.929 459.748,-304.871 461.177,-303.829"/>
<polygon fill="#e800e8" stroke="#e800e8" points="463.337,-306.593 469.626,-298.067 459.393,-300.81 463.337,-306.593"/>
</g>
<!-- TECH_ARCHERY&#45;&gt;TECH_HORSEBACK_RIDING -->
<g id="edge37" class="edge"><title>TECH_ARCHERY&#45;&gt;TECH_HORSEBACK_RIDING</title>
<path fill="none" stroke="#21bff7" d="M537.276,-73.9661C577.667,-75.6696 651.26,-80.2245 713,-92 723.132,-93.9325 733.716,-96.4633 744.036,-99.2253"/>
<polygon fill="#21bff7" stroke="#21bff7" points="743.255,-102.641 753.826,-101.932 745.12,-95.8937 743.255,-102.641"/>
</g>
<!-- BOOST_TECH_HORSEBACK_RIDING&#45;&gt;TECH_HORSEBACK_RIDING -->
<g id="edge38" class="edge"><title>BOOST_TECH_HORSEBACK_RIDING&#45;&gt;TECH_HORSEBACK_RIDING</title>
<path fill="none" stroke="#9eadbf" stroke-dasharray="5,2" d="M698.138,-120.284C712.372,-120.373 728.426,-120.474 743.893,-120.572"/>
<polygon fill="#9eadbf" stroke="#9eadbf" points="743.925,-124.072 753.947,-120.635 743.969,-117.072 743.925,-124.072"/>
</g>
<!-- CIVIC_EARLY_EMPIRE&#45;&gt;CIVIC_POLITICAL_PHILOSOPHY -->
<g id="edge39" class="edge"><title>CIVIC_EARLY_EMPIRE&#45;&gt;CIVIC_POLITICAL_PHILOSOPHY</title>
<path fill="none" stroke="#e800e8" d="M696.868,-373.342C714.876,-366.094 735.958,-357.608 755.126,-349.892"/>
<polygon fill="#e800e8" stroke="#e800e8" points="756.684,-353.038 764.654,-346.058 754.07,-346.545 756.684,-353.038"/>
</g>
<!-- UNIT_SCOUT&#45;&gt;BOOST_CIVIC_FOREIGN_TRADE -->
<g id="edge40" class="edge"><title>UNIT_SCOUT&#45;&gt;BOOST_CIVIC_FOREIGN_TRADE</title>
<path fill="none" stroke="#9eadbf" d="M220.384,-447C229.136,-447 238.816,-447 248.761,-447"/>
<polygon fill="#9eadbf" stroke="#9eadbf" points="248.769,-450.5 258.769,-447 248.769,-443.5 248.769,-450.5"/>
</g>
<!-- UNIT_SCOUT&#45;&gt;BOOST_CIVIC_POLITICAL_PHILOSOPHY -->
<g id="edge41" class="edge"><title>UNIT_SCOUT&#45;&gt;BOOST_CIVIC_POLITICAL_PHILOSOPHY</title>
<path fill="none" stroke="#9eadbf" d="M220.352,-463.17C232.471,-467.579 246.095,-471.756 259,-474 370.017,-493.305 501.4,-485.966 580.369,-478.372"/>
<polygon fill="#9eadbf" stroke="#9eadbf" points="581.076,-481.819 590.683,-477.35 580.386,-474.853 581.076,-481.819"/>
</g>
<!-- CIVIC_CRAFTSMANSHIP&#45;&gt;CIVIC_STATE_WORKFORCE -->
<g id="edge42" class="edge"><title>CIVIC_CRAFTSMANSHIP&#45;&gt;CIVIC_STATE_WORKFORCE</title>
<path fill="none" stroke="#e800e8" d="M555.351,-287.058C565.443,-288.741 576.233,-290.539 586.797,-292.299"/>
<polygon fill="#e800e8" stroke="#e800e8" points="586.386,-295.779 596.825,-293.971 587.537,-288.874 586.386,-295.779"/>
</g>
<!-- CIVIC_DEFENSIVE_TACTICS&#45;&gt;CIVIC_FEUDALISM -->
<g id="edge43" class="edge"><title>CIVIC_DEFENSIVE_TACTICS&#45;&gt;CIVIC_FEUDALISM</title>
<path fill="none" stroke="#e800e8" d="M1522.33,-197C1530.85,-197 1539.53,-197 1547.78,-197"/>
<polygon fill="#e800e8" stroke="#e800e8" points="1547.96,-200.5 1557.96,-197 1547.96,-193.5 1547.96,-200.5"/>
</g>
<!-- UNIT_SLINGER&#45;&gt;BOOST_TECH_ARCHERY -->
<g id="edge44" class="edge"><title>UNIT_SLINGER&#45;&gt;BOOST_TECH_ARCHERY</title>
<path fill="none" stroke="#9eadbf" d="M223.21,-29.0981C239.184,-27.567 257.894,-25.7737 275.559,-24.0806"/>
<polygon fill="#9eadbf" stroke="#9eadbf" points="276.19,-27.5362 285.811,-23.098 275.522,-20.5682 276.19,-27.5362"/>
</g>
<!-- BOOST_CIVIC_GAMES_RECREATION&#45;&gt;CIVIC_GAMES_RECREATION -->
<g id="edge45" class="edge"><title>BOOST_CIVIC_GAMES_RECREATION&#45;&gt;CIVIC_GAMES_RECREATION</title>
<path fill="none" stroke="#9eadbf" stroke-dasharray="5,2" d="M1191.1,-191.154C1199.5,-191.616 1208.09,-192.087 1216.55,-192.552"/>
<polygon fill="#9eadbf" stroke="#9eadbf" points="1216.62,-196.061 1226.8,-193.115 1217,-189.072 1216.62,-196.061"/>
</g>
<!-- BOOST_TECH_STIRRUPS&#45;&gt;TECH_STIRRUPS -->
<g id="edge46" class="edge"><title>BOOST_TECH_STIRRUPS&#45;&gt;TECH_STIRRUPS</title>
<path fill="none" stroke="#9eadbf" stroke-dasharray="5,2" d="M1807.07,-177.695C1815.94,-175.974 1824.78,-174.259 1832.96,-172.672"/>
<polygon fill="#9eadbf" stroke="#9eadbf" points="1833.77,-176.081 1842.92,-170.74 1832.43,-169.209 1833.77,-176.081"/>
</g>
</g>
</svg>
