<?xml version="1.0" encoding="UTF-8" standalone="no"?>
<!DOCTYPE svg PUBLIC "-//W3C//DTD SVG 1.1//EN"
 "http://www.w3.org/Graphics/SVG/1.1/DTD/svg11.dtd">
<!-- Generated by graphviz version 2.38.0 (20140413.2041)
 -->
<!-- Title: Civ 6 R&amp;F Civic, Technology, and Boosts network Pages: 1 -->
<svg width="1074pt" height="373pt"
 viewBox="0.00 0.00 1074.00 373.00" xmlns="http://www.w3.org/2000/svg" xmlns:xlink="http://www.w3.org/1999/xlink">
<g id="graph0" class="graph" transform="scale(1 1) rotate(0) translate(4 369)">
<title>Civ 6 R&amp;F Civic, Technology, and Boosts network</title>
<polygon fill="white" stroke="none" points="-4,4 -4,-369 1070,-369 1070,4 -4,4"/>
<!-- BOOST_TECH_MASONRY -->
<g id="node1" class="node"><title>BOOST_TECH_MASONRY</title>
<path fill="none" stroke="#9eadbf" d="M386,-233C386,-233 317,-233 317,-233 311,-233 305,-227 305,-221 305,-221 305,-207 305,-207 305,-201 311,-195 317,-195 317,-195 386,-195 386,-195 392,-195 398,-201 398,-207 398,-207 398,-221 398,-221 398,-227 392,-233 386,-233"/>
<text text-anchor="middle" x="351.5" y="-217.8" font-family="Times New Roman,serif" font-size="14.00">Quarry mined</text>
<text text-anchor="middle" x="351.5" y="-202.8" font-family="Times New Roman,serif" font-size="14.00">20P</text>
</g>
<!-- TECH_MASONRY -->
<g id="node12" class="node"><title>TECH_MASONRY</title>
<path fill="none" stroke="#21bff7" d="M507.5,-233C507.5,-233 465.5,-233 465.5,-233 459.5,-233 453.5,-227 453.5,-221 453.5,-221 453.5,-207 453.5,-207 453.5,-201 459.5,-195 465.5,-195 465.5,-195 507.5,-195 507.5,-195 513.5,-195 519.5,-201 519.5,-207 519.5,-207 519.5,-221 519.5,-221 519.5,-227 513.5,-233 507.5,-233"/>
<text text-anchor="middle" x="486.5" y="-217.8" font-family="Times New Roman,serif" font-size="14.00">Masonry</text>
<text text-anchor="middle" x="486.5" y="-202.8" font-family="Times New Roman,serif" font-size="14.00">80S</text>
</g>
<!-- BOOST_TECH_MASONRY&#45;&gt;TECH_MASONRY -->
<g id="edge1" class="edge"><title>BOOST_TECH_MASONRY&#45;&gt;TECH_MASONRY</title>
<path fill="none" stroke="#9eadbf" stroke-dasharray="5,2" d="M398.271,-214C412.904,-214 429.024,-214 443.383,-214"/>
<polygon fill="#9eadbf" stroke="#9eadbf" points="443.482,-217.5 453.482,-214 443.482,-210.5 443.482,-217.5"/>
</g>
<!-- BOOST_TECH_THE_WHEEL -->
<g id="node2" class="node"><title>BOOST_TECH_THE_WHEEL</title>
<path fill="none" stroke="#9eadbf" d="M376,-139C376,-139 327,-139 327,-139 321,-139 315,-133 315,-127 315,-127 315,-113 315,-113 315,-107 321,-101 327,-101 327,-101 376,-101 376,-101 382,-101 388,-107 388,-113 388,-113 388,-127 388,-127 388,-133 382,-139 376,-139"/>
<text text-anchor="middle" x="351.5" y="-123.8" font-family="Times New Roman,serif" font-size="14.00">Hill mined</text>
<text text-anchor="middle" x="351.5" y="-108.8" font-family="Times New Roman,serif" font-size="14.00">20P</text>
</g>
<!-- TECH_THE_WHEEL -->
<g id="node5" class="node"><title>TECH_THE_WHEEL</title>
<path fill="none" stroke="#21bff7" d="M501.5,-159C501.5,-159 471.5,-159 471.5,-159 465.5,-159 459.5,-153 459.5,-147 459.5,-147 459.5,-133 459.5,-133 459.5,-127 465.5,-121 471.5,-121 471.5,-121 501.5,-121 501.5,-121 507.5,-121 513.5,-127 513.5,-133 513.5,-133 513.5,-147 513.5,-147 513.5,-153 507.5,-159 501.5,-159"/>
<text text-anchor="middle" x="486.5" y="-143.8" font-family="Times New Roman,serif" font-size="14.00">Wheel</text>
<text text-anchor="middle" x="486.5" y="-128.8" font-family="Times New Roman,serif" font-size="14.00">80S</text>
</g>
<!-- BOOST_TECH_THE_WHEEL&#45;&gt;TECH_THE_WHEEL -->
<g id="edge2" class="edge"><title>BOOST_TECH_THE_WHEEL&#45;&gt;TECH_THE_WHEEL</title>
<path fill="none" stroke="#9eadbf" stroke-dasharray="5,2" d="M388.142,-125.36C407.099,-128.21 430.356,-131.708 449.384,-134.569"/>
<polygon fill="#9eadbf" stroke="#9eadbf" points="449.057,-138.059 459.466,-136.085 450.098,-131.137 449.057,-138.059"/>
</g>
<!-- RESOURCE_IRON -->
<g id="node3" class="node"><title>RESOURCE_IRON</title>
<path fill="none" stroke="#9eadbf" d="M519,-363C519,-363 454,-363 454,-363 448,-363 442,-357 442,-351 442,-351 442,-339 442,-339 442,-333 448,-327 454,-327 454,-327 519,-327 519,-327 525,-327 531,-333 531,-339 531,-339 531,-351 531,-351 531,-357 525,-363 519,-363"/>
<text text-anchor="middle" x="486.5" y="-341.3" font-family="Times New Roman,serif" font-size="14.00">Iron revealed</text>
</g>
<!-- BOOST_TECH_IRON_WORKING -->
<g id="node15" class="node"><title>BOOST_TECH_IRON_WORKING</title>
<path fill="none" stroke="#9eadbf" d="M650,-327C650,-327 597,-327 597,-327 591,-327 585,-321 585,-315 585,-315 585,-301 585,-301 585,-295 591,-289 597,-289 597,-289 650,-289 650,-289 656,-289 662,-295 662,-301 662,-301 662,-315 662,-315 662,-321 656,-327 650,-327"/>
<text text-anchor="middle" x="623.5" y="-311.8" font-family="Times New Roman,serif" font-size="14.00">Iron mined</text>
<text text-anchor="middle" x="623.5" y="-296.8" font-family="Times New Roman,serif" font-size="14.00">20P</text>
</g>
<!-- RESOURCE_IRON&#45;&gt;BOOST_TECH_IRON_WORKING -->
<g id="edge3" class="edge"><title>RESOURCE_IRON&#45;&gt;BOOST_TECH_IRON_WORKING</title>
<path fill="none" stroke="#9eadbf" d="M531.331,-332.987C545.208,-329.184 560.614,-324.961 574.752,-321.086"/>
<polygon fill="#9eadbf" stroke="#9eadbf" points="576.064,-324.356 584.783,-318.337 574.213,-317.605 576.064,-324.356"/>
</g>
<!-- TECH_ANIMAL_HUSBANDRY -->
<g id="node4" class="node"><title>TECH_ANIMAL_HUSBANDRY</title>
<path fill="none" stroke="#21bff7" d="M249,-38C249,-38 152,-38 152,-38 146,-38 140,-32 140,-26 140,-26 140,-12 140,-12 140,-6 146,-0 152,-0 152,-0 249,-0 249,-0 255,-0 261,-6 261,-12 261,-12 261,-26 261,-26 261,-32 255,-38 249,-38"/>
<text text-anchor="middle" x="200.5" y="-22.8" font-family="Times New Roman,serif" font-size="14.00">Animal Husbandry</text>
<text text-anchor="middle" x="200.5" y="-7.8" font-family="Times New Roman,serif" font-size="14.00">25S</text>
</g>
<!-- TECH_ARCHERY -->
<g id="node14" class="node"><title>TECH_ARCHERY</title>
<path fill="none" stroke="#21bff7" d="M505.5,-84C505.5,-84 467.5,-84 467.5,-84 461.5,-84 455.5,-78 455.5,-72 455.5,-72 455.5,-58 455.5,-58 455.5,-52 461.5,-46 467.5,-46 467.5,-46 505.5,-46 505.5,-46 511.5,-46 517.5,-52 517.5,-58 517.5,-58 517.5,-72 517.5,-72 517.5,-78 511.5,-84 505.5,-84"/>
<text text-anchor="middle" x="486.5" y="-68.8" font-family="Times New Roman,serif" font-size="14.00">Archery</text>
<text text-anchor="middle" x="486.5" y="-53.8" font-family="Times New Roman,serif" font-size="14.00">50S</text>
</g>
<!-- TECH_ANIMAL_HUSBANDRY&#45;&gt;TECH_ARCHERY -->
<g id="edge4" class="edge"><title>TECH_ANIMAL_HUSBANDRY&#45;&gt;TECH_ARCHERY</title>
<path fill="none" stroke="#21bff7" d="M261.118,-20.8503C302.21,-23.0218 357.875,-27.7415 406,-38 419.161,-40.8055 433.169,-45.0989 445.701,-49.4422"/>
<polygon fill="#21bff7" stroke="#21bff7" points="444.796,-52.8357 455.391,-52.9087 447.154,-46.2448 444.796,-52.8357"/>
</g>
<!-- BOOST_TECH_MACHINERY -->
<g id="node13" class="node"><title>BOOST_TECH_MACHINERY</title>
<path fill="none" stroke="#9eadbf" d="M668,-134C668,-134 579,-134 579,-134 573,-134 567,-128 567,-122 567,-122 567,-108 567,-108 567,-102 573,-96 579,-96 579,-96 668,-96 668,-96 674,-96 680,-102 680,-108 680,-108 680,-122 680,-122 680,-128 674,-134 668,-134"/>
<text text-anchor="middle" x="623.5" y="-118.8" font-family="Times New Roman,serif" font-size="14.00">3 Archers owned</text>
<text text-anchor="middle" x="623.5" y="-103.8" font-family="Times New Roman,serif" font-size="14.00">180P</text>
</g>
<!-- TECH_THE_WHEEL&#45;&gt;BOOST_TECH_MACHINERY -->
<g id="edge6" class="edge"><title>TECH_THE_WHEEL&#45;&gt;BOOST_TECH_MACHINERY</title>
<path fill="none" stroke="#9eadbf" d="M513.529,-135.18C525.974,-132.875 541.489,-130.002 556.875,-127.153"/>
<polygon fill="#9eadbf" stroke="#9eadbf" points="557.737,-130.553 566.933,-125.29 556.463,-123.67 557.737,-130.553"/>
</g>
<!-- TECH_ENGINEERING -->
<g id="node18" class="node"><title>TECH_ENGINEERING</title>
<path fill="none" stroke="#21bff7" d="M943,-206C943,-206 886,-206 886,-206 880,-206 874,-200 874,-194 874,-194 874,-180 874,-180 874,-174 880,-168 886,-168 886,-168 943,-168 943,-168 949,-168 955,-174 955,-180 955,-180 955,-194 955,-194 955,-200 949,-206 943,-206"/>
<text text-anchor="middle" x="914.5" y="-190.8" font-family="Times New Roman,serif" font-size="14.00">Engineering</text>
<text text-anchor="middle" x="914.5" y="-175.8" font-family="Times New Roman,serif" font-size="14.00">200S</text>
</g>
<!-- TECH_THE_WHEEL&#45;&gt;TECH_ENGINEERING -->
<g id="edge5" class="edge"><title>TECH_THE_WHEEL&#45;&gt;TECH_ENGINEERING</title>
<path fill="none" stroke="#21bff7" d="M513.507,-142.869C582.823,-150.517 772.902,-171.488 863.803,-181.517"/>
<polygon fill="#21bff7" stroke="#21bff7" points="863.535,-185.009 873.858,-182.626 864.303,-178.051 863.535,-185.009"/>
</g>
<!-- BOOST_TECH_ENGINEERING -->
<g id="node6" class="node"><title>BOOST_TECH_ENGINEERING</title>
<path fill="none" stroke="#9eadbf" d="M826,-226C826,-226 728,-226 728,-226 722,-226 716,-220 716,-214 716,-214 716,-202 716,-202 716,-196 722,-190 728,-190 728,-190 826,-190 826,-190 832,-190 838,-196 838,-202 838,-202 838,-214 838,-214 838,-220 832,-226 826,-226"/>
<text text-anchor="middle" x="777" y="-204.3" font-family="Times New Roman,serif" font-size="14.00">Ancient Walls built</text>
</g>
<!-- BOOST_TECH_ENGINEERING&#45;&gt;TECH_ENGINEERING -->
<g id="edge7" class="edge"><title>BOOST_TECH_ENGINEERING&#45;&gt;TECH_ENGINEERING</title>
<path fill="none" stroke="#9eadbf" stroke-dasharray="5,2" d="M838.221,-198.667C846.764,-197.343 855.468,-195.994 863.781,-194.705"/>
<polygon fill="#9eadbf" stroke="#9eadbf" points="864.345,-198.16 873.691,-193.17 863.273,-191.243 864.345,-198.16"/>
</g>
<!-- TECH_MINING -->
<g id="node7" class="node"><title>TECH_MINING</title>
<path fill="none" stroke="#21bff7" d="M216,-233C216,-233 185,-233 185,-233 179,-233 173,-227 173,-221 173,-221 173,-207 173,-207 173,-201 179,-195 185,-195 185,-195 216,-195 216,-195 222,-195 228,-201 228,-207 228,-207 228,-221 228,-221 228,-227 222,-233 216,-233"/>
<text text-anchor="middle" x="200.5" y="-217.8" font-family="Times New Roman,serif" font-size="14.00">Mining</text>
<text text-anchor="middle" x="200.5" y="-202.8" font-family="Times New Roman,serif" font-size="14.00">25S</text>
</g>
<!-- TECH_MINING&#45;&gt;BOOST_TECH_MASONRY -->
<g id="edge12" class="edge"><title>TECH_MINING&#45;&gt;BOOST_TECH_MASONRY</title>
<path fill="none" stroke="#9eadbf" d="M228.138,-214C246.576,-214 271.796,-214 294.55,-214"/>
<polygon fill="#9eadbf" stroke="#9eadbf" points="294.798,-217.5 304.798,-214 294.798,-210.5 294.798,-217.5"/>
</g>
<!-- TECH_MINING&#45;&gt;BOOST_TECH_THE_WHEEL -->
<g id="edge13" class="edge"><title>TECH_MINING&#45;&gt;BOOST_TECH_THE_WHEEL</title>
<path fill="none" stroke="#9eadbf" d="M228.186,-196.796C247.298,-184.514 273.672,-167.643 297,-153 301.393,-150.242 305.999,-147.371 310.588,-144.523"/>
<polygon fill="#9eadbf" stroke="#9eadbf" points="312.669,-147.352 319.33,-139.112 308.985,-141.399 312.669,-147.352"/>
</g>
<!-- TECH_MINING&#45;&gt;TECH_THE_WHEEL -->
<g id="edge10" class="edge"><title>TECH_MINING&#45;&gt;TECH_THE_WHEEL</title>
<path fill="none" stroke="#21bff7" d="M228.165,-205.826C247.267,-200.058 273.638,-192.272 297,-186 349.785,-171.829 411.377,-157.144 449.411,-148.288"/>
<polygon fill="#21bff7" stroke="#21bff7" points="450.537,-151.62 459.487,-145.95 448.954,-144.801 450.537,-151.62"/>
</g>
<!-- TECH_MINING&#45;&gt;TECH_MASONRY -->
<g id="edge8" class="edge"><title>TECH_MINING&#45;&gt;TECH_MASONRY</title>
<path fill="none" stroke="#21bff7" d="M228.213,-224.061C247.116,-230.625 273.228,-238.587 297,-242 344.953,-248.885 358.248,-250.163 406,-242 418.508,-239.862 431.665,-235.959 443.595,-231.733"/>
<polygon fill="#21bff7" stroke="#21bff7" points="445.128,-234.897 453.287,-228.138 442.694,-228.334 445.128,-234.897"/>
</g>
<!-- TECH_MINING&#45;&gt;BOOST_TECH_IRON_WORKING -->
<g id="edge11" class="edge"><title>TECH_MINING&#45;&gt;BOOST_TECH_IRON_WORKING</title>
<path fill="none" stroke="#9eadbf" d="M228.289,-228.804C247.009,-238.527 272.875,-250.746 297,-258 392.949,-286.85 510.066,-299.632 574.407,-304.825"/>
<polygon fill="#9eadbf" stroke="#9eadbf" points="574.408,-308.336 584.65,-305.623 574.952,-301.357 574.408,-308.336"/>
</g>
<!-- TECH_BRONZE_WORKING -->
<g id="node20" class="node"><title>TECH_BRONZE_WORKING</title>
<path fill="none" stroke="#21bff7" d="M394,-365C394,-365 309,-365 309,-365 303,-365 297,-359 297,-353 297,-353 297,-339 297,-339 297,-333 303,-327 309,-327 309,-327 394,-327 394,-327 400,-327 406,-333 406,-339 406,-339 406,-353 406,-353 406,-359 400,-365 394,-365"/>
<text text-anchor="middle" x="351.5" y="-349.8" font-family="Times New Roman,serif" font-size="14.00">Bronze Working</text>
<text text-anchor="middle" x="351.5" y="-334.8" font-family="Times New Roman,serif" font-size="14.00">80S</text>
</g>
<!-- TECH_MINING&#45;&gt;TECH_BRONZE_WORKING -->
<g id="edge9" class="edge"><title>TECH_MINING&#45;&gt;TECH_BRONZE_WORKING</title>
<path fill="none" stroke="#21bff7" d="M217.49,-233.265C235.51,-254.301 266.312,-288.283 297,-313 300.489,-315.81 304.234,-318.567 308.064,-321.216"/>
<polygon fill="#21bff7" stroke="#21bff7" points="306.248,-324.212 316.517,-326.822 310.117,-318.378 306.248,-324.212"/>
</g>
<!-- BUILDING_WALLS -->
<g id="node8" class="node"><title>BUILDING_WALLS</title>
<path fill="none" stroke="#c78733" d="M659,-230C659,-230 588,-230 588,-230 582,-230 576,-224 576,-218 576,-218 576,-204 576,-204 576,-198 582,-192 588,-192 588,-192 659,-192 659,-192 665,-192 671,-198 671,-204 671,-204 671,-218 671,-218 671,-224 665,-230 659,-230"/>
<text text-anchor="middle" x="623.5" y="-214.8" font-family="Times New Roman,serif" font-size="14.00">Ancient Walls</text>
<text text-anchor="middle" x="623.5" y="-199.8" font-family="Times New Roman,serif" font-size="14.00">80P</text>
</g>
<!-- BUILDING_WALLS&#45;&gt;BOOST_TECH_ENGINEERING -->
<g id="edge14" class="edge"><title>BUILDING_WALLS&#45;&gt;BOOST_TECH_ENGINEERING</title>
<path fill="none" stroke="#9eadbf" d="M671.191,-210.075C682.085,-209.86 693.923,-209.625 705.592,-209.394"/>
<polygon fill="#9eadbf" stroke="#9eadbf" points="705.846,-212.89 715.775,-209.193 705.707,-205.891 705.846,-212.89"/>
</g>
<!-- BOOST_TECH_ARCHERY -->
<g id="node9" class="node"><title>BOOST_TECH_ARCHERY</title>
<path fill="none" stroke="#9eadbf" d="M393.5,-83C393.5,-83 309.5,-83 309.5,-83 303.5,-83 297.5,-77 297.5,-71 297.5,-71 297.5,-59 297.5,-59 297.5,-53 303.5,-47 309.5,-47 309.5,-47 393.5,-47 393.5,-47 399.5,-47 405.5,-53 405.5,-59 405.5,-59 405.5,-71 405.5,-71 405.5,-77 399.5,-83 393.5,-83"/>
<text text-anchor="middle" x="351.5" y="-61.3" font-family="Times New Roman,serif" font-size="14.00">Slinger kill made</text>
</g>
<!-- BOOST_TECH_ARCHERY&#45;&gt;TECH_ARCHERY -->
<g id="edge15" class="edge"><title>BOOST_TECH_ARCHERY&#45;&gt;TECH_ARCHERY</title>
<path fill="none" stroke="#9eadbf" stroke-dasharray="5,2" d="M405.83,-65C419.041,-65 432.976,-65 445.432,-65"/>
<polygon fill="#9eadbf" stroke="#9eadbf" points="445.499,-68.5001 455.499,-65 445.499,-61.5001 445.499,-68.5001"/>
</g>
<!-- SETTLE_FIRST_CITY -->
<g id="node10" class="node"><title>SETTLE_FIRST_CITY</title>
<path fill="none" stroke="Black" d="M92,-93C92,-93 12,-93 12,-93 6,-93 0,-87 0,-81 0,-81 0,-69 0,-69 0,-63 6,-57 12,-57 12,-57 92,-57 92,-57 98,-57 104,-63 104,-69 104,-69 104,-81 104,-81 104,-87 98,-93 92,-93"/>
<text text-anchor="middle" x="52" y="-71.3" font-family="Times New Roman,serif" font-size="14.00">Settle First City</text>
</g>
<!-- SETTLE_FIRST_CITY&#45;&gt;TECH_ANIMAL_HUSBANDRY -->
<g id="edge16" class="edge"><title>SETTLE_FIRST_CITY&#45;&gt;TECH_ANIMAL_HUSBANDRY</title>
<path fill="none" stroke="#21bff7" d="M100.16,-56.973C112.881,-52.1102 126.81,-46.7858 140.107,-41.7031"/>
<polygon fill="#21bff7" stroke="#21bff7" points="141.56,-44.8948 149.651,-38.0549 139.06,-38.3562 141.56,-44.8948"/>
</g>
<!-- SETTLE_FIRST_CITY&#45;&gt;TECH_MINING -->
<g id="edge17" class="edge"><title>SETTLE_FIRST_CITY&#45;&gt;TECH_MINING</title>
<path fill="none" stroke="#21bff7" d="M72.1523,-93.1718C97.641,-117.356 142.875,-160.274 172.005,-187.913"/>
<polygon fill="#21bff7" stroke="#21bff7" points="169.74,-190.588 179.403,-194.932 174.558,-185.51 169.74,-190.588"/>
</g>
<!-- UNIT_SLINGER -->
<g id="node19" class="node"><title>UNIT_SLINGER</title>
<path fill="none" stroke="#9eadbf" d="M230,-94C230,-94 171,-94 171,-94 165,-94 159,-88 159,-82 159,-82 159,-68 159,-68 159,-62 165,-56 171,-56 171,-56 230,-56 230,-56 236,-56 242,-62 242,-68 242,-68 242,-82 242,-82 242,-88 236,-94 230,-94"/>
<text text-anchor="middle" x="200.5" y="-78.8" font-family="Times New Roman,serif" font-size="14.00">Slinger built</text>
<text text-anchor="middle" x="200.5" y="-63.8" font-family="Times New Roman,serif" font-size="14.00">35P</text>
</g>
<!-- SETTLE_FIRST_CITY&#45;&gt;UNIT_SLINGER -->
<g id="edge18" class="edge"><title>SETTLE_FIRST_CITY&#45;&gt;UNIT_SLINGER</title>
<path fill="none" stroke="#9eadbf" d="M104.239,-75C118.58,-75 134.163,-75 148.491,-75"/>
<polygon fill="#9eadbf" stroke="#9eadbf" points="148.667,-78.5001 158.667,-75 148.667,-71.5001 148.667,-78.5001"/>
</g>
<!-- BOOST_TECH_BRONZE_WORKING -->
<g id="node11" class="node"><title>BOOST_TECH_BRONZE_WORKING</title>
<path fill="none" stroke="#9eadbf" d="M235,-365C235,-365 166,-365 166,-365 160,-365 154,-359 154,-353 154,-353 154,-339 154,-339 154,-333 160,-327 166,-327 166,-327 235,-327 235,-327 241,-327 247,-333 247,-339 247,-339 247,-353 247,-353 247,-359 241,-365 235,-365"/>
<text text-anchor="middle" x="200.5" y="-349.8" font-family="Times New Roman,serif" font-size="14.00">3 Barbs killed</text>
<text text-anchor="middle" x="200.5" y="-334.8" font-family="Times New Roman,serif" font-size="14.00">80P</text>
</g>
<!-- BOOST_TECH_BRONZE_WORKING&#45;&gt;TECH_BRONZE_WORKING -->
<g id="edge19" class="edge"><title>BOOST_TECH_BRONZE_WORKING&#45;&gt;TECH_BRONZE_WORKING</title>
<path fill="none" stroke="#9eadbf" stroke-dasharray="5,2" d="M247.015,-346C259.563,-346 273.411,-346 286.786,-346"/>
<polygon fill="#9eadbf" stroke="#9eadbf" points="286.892,-349.5 296.892,-346 286.892,-342.5 286.892,-349.5"/>
</g>
<!-- TECH_MASONRY&#45;&gt;BUILDING_WALLS -->
<g id="edge20" class="edge"><title>TECH_MASONRY&#45;&gt;BUILDING_WALLS</title>
<path fill="none" stroke="#c78733" d="M519.836,-213.281C533.593,-212.976 550.055,-212.61 565.725,-212.262"/>
<polygon fill="#c78733" stroke="#c78733" points="565.952,-215.758 575.872,-212.036 565.796,-208.759 565.952,-215.758"/>
</g>
<!-- TECH_MACHINERY -->
<g id="node16" class="node"><title>TECH_MACHINERY</title>
<path fill="none" stroke="#21bff7" d="M1054,-206C1054,-206 1003,-206 1003,-206 997,-206 991,-200 991,-194 991,-194 991,-180 991,-180 991,-174 997,-168 1003,-168 1003,-168 1054,-168 1054,-168 1060,-168 1066,-174 1066,-180 1066,-180 1066,-194 1066,-194 1066,-200 1060,-206 1054,-206"/>
<text text-anchor="middle" x="1028.5" y="-190.8" font-family="Times New Roman,serif" font-size="14.00">Machinery</text>
<text text-anchor="middle" x="1028.5" y="-175.8" font-family="Times New Roman,serif" font-size="14.00">300S</text>
</g>
<!-- BOOST_TECH_MACHINERY&#45;&gt;TECH_MACHINERY -->
<g id="edge21" class="edge"><title>BOOST_TECH_MACHINERY&#45;&gt;TECH_MACHINERY</title>
<path fill="none" stroke="#9eadbf" stroke-dasharray="5,2" d="M680.231,-118.391C746.55,-123.345 860.227,-134.754 955,-159 963.643,-161.211 972.657,-164.148 981.275,-167.288"/>
<polygon fill="#9eadbf" stroke="#9eadbf" points="980.203,-170.624 990.795,-170.891 982.682,-164.078 980.203,-170.624"/>
</g>
<!-- TECH_ARCHERY&#45;&gt;BOOST_TECH_MACHINERY -->
<g id="edge22" class="edge"><title>TECH_ARCHERY&#45;&gt;BOOST_TECH_MACHINERY</title>
<path fill="none" stroke="#9eadbf" d="M517.797,-76.221C530.801,-81.0374 546.484,-86.8461 561.708,-92.4845"/>
<polygon fill="#9eadbf" stroke="#9eadbf" points="560.507,-95.7718 571.1,-95.9629 562.938,-89.2075 560.507,-95.7718"/>
</g>
<!-- TECH_IRON_WORKING -->
<g id="node17" class="node"><title>TECH_IRON_WORKING</title>
<path fill="none" stroke="#21bff7" d="M811,-282C811,-282 743,-282 743,-282 737,-282 731,-276 731,-270 731,-270 731,-256 731,-256 731,-250 737,-244 743,-244 743,-244 811,-244 811,-244 817,-244 823,-250 823,-256 823,-256 823,-270 823,-270 823,-276 817,-282 811,-282"/>
<text text-anchor="middle" x="777" y="-266.8" font-family="Times New Roman,serif" font-size="14.00">Iron Working</text>
<text text-anchor="middle" x="777" y="-251.8" font-family="Times New Roman,serif" font-size="14.00">120S</text>
</g>
<!-- BOOST_TECH_IRON_WORKING&#45;&gt;TECH_IRON_WORKING -->
<g id="edge23" class="edge"><title>BOOST_TECH_IRON_WORKING&#45;&gt;TECH_IRON_WORKING</title>
<path fill="none" stroke="#9eadbf" stroke-dasharray="5,2" d="M662.339,-296.761C680.108,-291.483 701.628,-285.091 721.141,-279.295"/>
<polygon fill="#9eadbf" stroke="#9eadbf" points="722.242,-282.619 730.831,-276.417 720.248,-275.909 722.242,-282.619"/>
</g>
<!-- TECH_IRON_WORKING&#45;&gt;TECH_MACHINERY -->
<g id="edge24" class="edge"><title>TECH_IRON_WORKING&#45;&gt;TECH_MACHINERY</title>
<path fill="none" stroke="#21bff7" d="M823.119,-252.14C859.116,-243.146 910.675,-229.526 955,-215 963.571,-212.191 972.608,-208.94 981.285,-205.67"/>
<polygon fill="#21bff7" stroke="#21bff7" points="982.799,-208.838 990.884,-201.991 980.293,-202.301 982.799,-208.838"/>
</g>
<!-- TECH_ENGINEERING&#45;&gt;TECH_MACHINERY -->
<g id="edge25" class="edge"><title>TECH_ENGINEERING&#45;&gt;TECH_MACHINERY</title>
<path fill="none" stroke="#21bff7" d="M955.302,-187C963.527,-187 972.262,-187 980.71,-187"/>
<polygon fill="#21bff7" stroke="#21bff7" points="980.817,-190.5 990.817,-187 980.817,-183.5 980.817,-190.5"/>
</g>
<!-- UNIT_SLINGER&#45;&gt;BOOST_TECH_ARCHERY -->
<g id="edge26" class="edge"><title>UNIT_SLINGER&#45;&gt;BOOST_TECH_ARCHERY</title>
<path fill="none" stroke="#9eadbf" d="M242.215,-72.2675C256.007,-71.3418 271.758,-70.2847 286.896,-69.2687"/>
<polygon fill="#9eadbf" stroke="#9eadbf" points="287.504,-72.7359 297.247,-68.574 287.035,-65.7516 287.504,-72.7359"/>
</g>
<!-- TECH_BRONZE_WORKING&#45;&gt;RESOURCE_IRON -->
<g id="edge28" class="edge"><title>TECH_BRONZE_WORKING&#45;&gt;RESOURCE_IRON</title>
<path fill="none" stroke="#9eadbf" d="M406.213,-345.596C414.619,-345.533 423.308,-345.468 431.715,-345.404"/>
<polygon fill="#9eadbf" stroke="#9eadbf" points="431.819,-348.904 441.793,-345.329 431.766,-341.904 431.819,-348.904"/>
</g>
<!-- TECH_BRONZE_WORKING&#45;&gt;TECH_IRON_WORKING -->
<g id="edge27" class="edge"><title>TECH_BRONZE_WORKING&#45;&gt;TECH_IRON_WORKING</title>
<path fill="none" stroke="#21bff7" d="M406.432,-329.05C418.152,-325.388 430.487,-321.551 442,-318 497.487,-300.887 509.959,-290.86 567,-280 618.539,-270.187 678.286,-266.035 720.666,-264.28"/>
<polygon fill="#21bff7" stroke="#21bff7" points="720.921,-267.773 730.78,-263.893 720.654,-260.778 720.921,-267.773"/>
</g>
</g>
</svg>
