<?xml version="1.0" encoding="UTF-8" standalone="no"?>
<!DOCTYPE svg PUBLIC "-//W3C//DTD SVG 1.1//EN"
 "http://www.w3.org/Graphics/SVG/1.1/DTD/svg11.dtd">
<!-- Generated by graphviz version 2.38.0 (20140413.2041)
 -->
<!-- Title: Civ 6 R&amp;F Civic, Technology, and Boosts network Pages: 1 -->
<svg width="879pt" height="248pt"
 viewBox="0.00 0.00 879.00 248.00" xmlns="http://www.w3.org/2000/svg" xmlns:xlink="http://www.w3.org/1999/xlink">
<g id="graph0" class="graph" transform="scale(1 1) rotate(0) translate(4 244)">
<title>Civ 6 R&amp;F Civic, Technology, and Boosts network</title>
<polygon fill="white" stroke="none" points="-4,4 -4,-244 875,-244 875,4 -4,4"/>
<!-- CIVIC_STATE_WORKFORCE -->
<g id="node1" class="node"><title>CIVIC_STATE_WORKFORCE</title>
<path fill="none" stroke="#e800e8" d="M689,-184C689,-184 603,-184 603,-184 597,-184 591,-178 591,-172 591,-172 591,-158 591,-158 591,-152 597,-146 603,-146 603,-146 689,-146 689,-146 695,-146 701,-152 701,-158 701,-158 701,-172 701,-172 701,-178 695,-184 689,-184"/>
<text text-anchor="middle" x="646" y="-168.8" font-family="Times New Roman,serif" font-size="14.00">State Workforce</text>
<text text-anchor="middle" x="646" y="-153.8" font-family="Times New Roman,serif" font-size="14.00">70C</text>
</g>
<!-- CIVIC_POLITICAL_PHILOSOPHY -->
<g id="node3" class="node"><title>CIVIC_POLITICAL_PHILOSOPHY</title>
<path fill="none" stroke="#e800e8" d="M859,-116C859,-116 755,-116 755,-116 749,-116 743,-110 743,-104 743,-104 743,-90 743,-90 743,-84 749,-78 755,-78 755,-78 859,-78 859,-78 865,-78 871,-84 871,-90 871,-90 871,-104 871,-104 871,-110 865,-116 859,-116"/>
<text text-anchor="middle" x="807" y="-100.8" font-family="Times New Roman,serif" font-size="14.00">Political Philosophy</text>
<text text-anchor="middle" x="807" y="-85.8" font-family="Times New Roman,serif" font-size="14.00">110C</text>
</g>
<!-- CIVIC_STATE_WORKFORCE&#45;&gt;CIVIC_POLITICAL_PHILOSOPHY -->
<g id="edge1" class="edge"><title>CIVIC_STATE_WORKFORCE&#45;&gt;CIVIC_POLITICAL_PHILOSOPHY</title>
<path fill="none" stroke="#e800e8" d="M691.713,-145.877C710.421,-137.876 732.33,-128.507 751.933,-120.123"/>
<polygon fill="#e800e8" stroke="#e800e8" points="753.529,-123.247 761.347,-116.097 750.776,-116.811 753.529,-123.247"/>
</g>
<!-- CIVIC_FOREIGN_TRADE -->
<g id="node2" class="node"><title>CIVIC_FOREIGN_TRADE</title>
<path fill="none" stroke="#e800e8" d="M536,-128C536,-128 464,-128 464,-128 458,-128 452,-122 452,-116 452,-116 452,-102 452,-102 452,-96 458,-90 464,-90 464,-90 536,-90 536,-90 542,-90 548,-96 548,-102 548,-102 548,-116 548,-116 548,-122 542,-128 536,-128"/>
<text text-anchor="middle" x="500" y="-112.8" font-family="Times New Roman,serif" font-size="14.00">Foreign Trade</text>
<text text-anchor="middle" x="500" y="-97.8" font-family="Times New Roman,serif" font-size="14.00">40C</text>
</g>
<!-- CIVIC_EARLY_EMPIRE -->
<g id="node9" class="node"><title>CIVIC_EARLY_EMPIRE</title>
<path fill="none" stroke="#e800e8" d="M678.5,-116C678.5,-116 613.5,-116 613.5,-116 607.5,-116 601.5,-110 601.5,-104 601.5,-104 601.5,-90 601.5,-90 601.5,-84 607.5,-78 613.5,-78 613.5,-78 678.5,-78 678.5,-78 684.5,-78 690.5,-84 690.5,-90 690.5,-90 690.5,-104 690.5,-104 690.5,-110 684.5,-116 678.5,-116"/>
<text text-anchor="middle" x="646" y="-100.8" font-family="Times New Roman,serif" font-size="14.00">Early Empire</text>
<text text-anchor="middle" x="646" y="-85.8" font-family="Times New Roman,serif" font-size="14.00">70C</text>
</g>
<!-- CIVIC_FOREIGN_TRADE&#45;&gt;CIVIC_EARLY_EMPIRE -->
<g id="edge2" class="edge"><title>CIVIC_FOREIGN_TRADE&#45;&gt;CIVIC_EARLY_EMPIRE</title>
<path fill="none" stroke="#e800e8" d="M548.151,-105.071C561.88,-103.927 576.983,-102.668 591.094,-101.492"/>
<polygon fill="#e800e8" stroke="#e800e8" points="591.485,-104.972 601.16,-100.653 590.904,-97.996 591.485,-104.972"/>
</g>
<!-- BOOST_CIVIC_EARLY_EMPIRE -->
<g id="node4" class="node"><title>BOOST_CIVIC_EARLY_EMPIRE</title>
<path fill="none" stroke="#9eadbf" d="M536.5,-72C536.5,-72 463.5,-72 463.5,-72 457.5,-72 451.5,-66 451.5,-60 451.5,-60 451.5,-46 451.5,-46 451.5,-40 457.5,-34 463.5,-34 463.5,-34 536.5,-34 536.5,-34 542.5,-34 548.5,-40 548.5,-46 548.5,-46 548.5,-60 548.5,-60 548.5,-66 542.5,-72 536.5,-72"/>
<text text-anchor="middle" x="500" y="-56.8" font-family="Times New Roman,serif" font-size="14.00">6 pop reached</text>
<text text-anchor="middle" x="500" y="-41.8" font-family="Times New Roman,serif" font-size="14.00">80F</text>
</g>
<!-- BOOST_CIVIC_EARLY_EMPIRE&#45;&gt;CIVIC_EARLY_EMPIRE -->
<g id="edge3" class="edge"><title>BOOST_CIVIC_EARLY_EMPIRE&#45;&gt;CIVIC_EARLY_EMPIRE</title>
<path fill="none" stroke="#9eadbf" stroke-dasharray="5,2" d="M548.55,-67.5292C562.395,-71.7595 577.608,-76.4081 591.778,-80.7379"/>
<polygon fill="#9eadbf" stroke="#9eadbf" points="590.806,-84.1004 601.392,-83.6754 592.852,-77.4059 590.806,-84.1004"/>
</g>
<!-- BOOST_CIVIC_FOREIGN_TRADE -->
<g id="node5" class="node"><title>BOOST_CIVIC_FOREIGN_TRADE</title>
<path fill="none" stroke="#9eadbf" d="M403,-72C403,-72 265,-72 265,-72 259,-72 253,-66 253,-60 253,-60 253,-48 253,-48 253,-42 259,-36 265,-36 265,-36 403,-36 403,-36 409,-36 415,-42 415,-48 415,-48 415,-60 415,-60 415,-66 409,-72 403,-72"/>
<text text-anchor="middle" x="334" y="-50.3" font-family="Times New Roman,serif" font-size="14.00">New continent discovered</text>
</g>
<!-- BOOST_CIVIC_FOREIGN_TRADE&#45;&gt;CIVIC_FOREIGN_TRADE -->
<g id="edge4" class="edge"><title>BOOST_CIVIC_FOREIGN_TRADE&#45;&gt;CIVIC_FOREIGN_TRADE</title>
<path fill="none" stroke="#9eadbf" stroke-dasharray="5,2" d="M388.7,-72.0091C405.723,-77.7182 424.602,-84.0495 441.858,-89.8367"/>
<polygon fill="#9eadbf" stroke="#9eadbf" points="441.211,-93.3111 451.805,-93.1724 443.437,-86.6744 441.211,-93.3111"/>
</g>
<!-- SETTLE_FIRST_CITY -->
<g id="node6" class="node"><title>SETTLE_FIRST_CITY</title>
<path fill="none" stroke="Black" d="M92,-97C92,-97 12,-97 12,-97 6,-97 0,-91 0,-85 0,-85 0,-73 0,-73 0,-67 6,-61 12,-61 12,-61 92,-61 92,-61 98,-61 104,-67 104,-73 104,-73 104,-85 104,-85 104,-91 98,-97 92,-97"/>
<text text-anchor="middle" x="52" y="-75.3" font-family="Times New Roman,serif" font-size="14.00">Settle First City</text>
</g>
<!-- CIVIC_CODE_OF_LAWS -->
<g id="node8" class="node"><title>CIVIC_CODE_OF_LAWS</title>
<path fill="none" stroke="#e800e8" d="M370.5,-128C370.5,-128 297.5,-128 297.5,-128 291.5,-128 285.5,-122 285.5,-116 285.5,-116 285.5,-102 285.5,-102 285.5,-96 291.5,-90 297.5,-90 297.5,-90 370.5,-90 370.5,-90 376.5,-90 382.5,-96 382.5,-102 382.5,-102 382.5,-116 382.5,-116 382.5,-122 376.5,-128 370.5,-128"/>
<text text-anchor="middle" x="334" y="-112.8" font-family="Times New Roman,serif" font-size="14.00">Code of Laws</text>
<text text-anchor="middle" x="334" y="-97.8" font-family="Times New Roman,serif" font-size="14.00">20C</text>
</g>
<!-- SETTLE_FIRST_CITY&#45;&gt;CIVIC_CODE_OF_LAWS -->
<g id="edge5" class="edge"><title>SETTLE_FIRST_CITY&#45;&gt;CIVIC_CODE_OF_LAWS</title>
<path fill="none" stroke="#e800e8" d="M104.031,-84.4676C152.286,-89.6378 224.621,-97.388 275.032,-102.789"/>
<polygon fill="#e800e8" stroke="#e800e8" points="274.808,-106.285 285.124,-103.87 275.554,-99.325 274.808,-106.285"/>
</g>
<!-- UNIT_SCOUT -->
<g id="node10" class="node"><title>UNIT_SCOUT</title>
<path fill="none" stroke="#9eadbf" d="M205,-73C205,-73 152,-73 152,-73 146,-73 140,-67 140,-61 140,-61 140,-47 140,-47 140,-41 146,-35 152,-35 152,-35 205,-35 205,-35 211,-35 217,-41 217,-47 217,-47 217,-61 217,-61 217,-67 211,-73 205,-73"/>
<text text-anchor="middle" x="178.5" y="-57.8" font-family="Times New Roman,serif" font-size="14.00">Scout built</text>
<text text-anchor="middle" x="178.5" y="-42.8" font-family="Times New Roman,serif" font-size="14.00">30P</text>
</g>
<!-- SETTLE_FIRST_CITY&#45;&gt;UNIT_SCOUT -->
<g id="edge6" class="edge"><title>SETTLE_FIRST_CITY&#45;&gt;UNIT_SCOUT</title>
<path fill="none" stroke="#9eadbf" d="M104.358,-68.6872C112.834,-66.9851 121.589,-65.2272 129.966,-63.545"/>
<polygon fill="#9eadbf" stroke="#9eadbf" points="130.838,-66.9398 139.953,-61.5395 129.46,-60.0768 130.838,-66.9398"/>
</g>
<!-- BOOST_CIVIC_STATE_WORKFORCE -->
<g id="node7" class="node"><title>BOOST_CIVIC_STATE_WORKFORCE</title>
<path fill="none" stroke="#9eadbf" d="M530.5,-240C530.5,-240 469.5,-240 469.5,-240 463.5,-240 457.5,-234 457.5,-228 457.5,-228 457.5,-214 457.5,-214 457.5,-208 463.5,-202 469.5,-202 469.5,-202 530.5,-202 530.5,-202 536.5,-202 542.5,-208 542.5,-214 542.5,-214 542.5,-228 542.5,-228 542.5,-234 536.5,-240 530.5,-240"/>
<text text-anchor="middle" x="500" y="-224.8" font-family="Times New Roman,serif" font-size="14.00">District built</text>
<text text-anchor="middle" x="500" y="-209.8" font-family="Times New Roman,serif" font-size="14.00">54P</text>
</g>
<!-- BOOST_CIVIC_STATE_WORKFORCE&#45;&gt;CIVIC_STATE_WORKFORCE -->
<g id="edge7" class="edge"><title>BOOST_CIVIC_STATE_WORKFORCE&#45;&gt;CIVIC_STATE_WORKFORCE</title>
<path fill="none" stroke="#9eadbf" stroke-dasharray="5,2" d="M542.651,-204.802C556.347,-199.476 571.836,-193.453 586.543,-187.733"/>
<polygon fill="#9eadbf" stroke="#9eadbf" points="588.016,-190.916 596.068,-184.029 585.479,-184.392 588.016,-190.916"/>
</g>
<!-- CIVIC_CODE_OF_LAWS&#45;&gt;CIVIC_FOREIGN_TRADE -->
<g id="edge9" class="edge"><title>CIVIC_CODE_OF_LAWS&#45;&gt;CIVIC_FOREIGN_TRADE</title>
<path fill="none" stroke="#e800e8" d="M382.876,-109C401.309,-109 422.541,-109 441.769,-109"/>
<polygon fill="#e800e8" stroke="#e800e8" points="441.913,-112.5 451.913,-109 441.913,-105.5 441.913,-112.5"/>
</g>
<!-- CIVIC_CRAFTSMANSHIP -->
<g id="node11" class="node"><title>CIVIC_CRAFTSMANSHIP</title>
<path fill="none" stroke="#e800e8" d="M537,-184C537,-184 463,-184 463,-184 457,-184 451,-178 451,-172 451,-172 451,-158 451,-158 451,-152 457,-146 463,-146 463,-146 537,-146 537,-146 543,-146 549,-152 549,-158 549,-158 549,-172 549,-172 549,-178 543,-184 537,-184"/>
<text text-anchor="middle" x="500" y="-168.8" font-family="Times New Roman,serif" font-size="14.00">Craftsmanship</text>
<text text-anchor="middle" x="500" y="-153.8" font-family="Times New Roman,serif" font-size="14.00">40C</text>
</g>
<!-- CIVIC_CODE_OF_LAWS&#45;&gt;CIVIC_CRAFTSMANSHIP -->
<g id="edge8" class="edge"><title>CIVIC_CODE_OF_LAWS&#45;&gt;CIVIC_CRAFTSMANSHIP</title>
<path fill="none" stroke="#e800e8" d="M382.876,-125.348C401.155,-131.59 422.188,-138.771 441.287,-145.293"/>
<polygon fill="#e800e8" stroke="#e800e8" points="440.186,-148.615 450.78,-148.535 442.448,-141.991 440.186,-148.615"/>
</g>
<!-- CIVIC_EARLY_EMPIRE&#45;&gt;CIVIC_POLITICAL_PHILOSOPHY -->
<g id="edge10" class="edge"><title>CIVIC_EARLY_EMPIRE&#45;&gt;CIVIC_POLITICAL_PHILOSOPHY</title>
<path fill="none" stroke="#e800e8" d="M690.868,-97C703.813,-97 718.346,-97 732.615,-97"/>
<polygon fill="#e800e8" stroke="#e800e8" points="732.932,-100.5 742.932,-97 732.931,-93.5001 732.932,-100.5"/>
</g>
<!-- UNIT_SCOUT&#45;&gt;BOOST_CIVIC_FOREIGN_TRADE -->
<g id="edge11" class="edge"><title>UNIT_SCOUT&#45;&gt;BOOST_CIVIC_FOREIGN_TRADE</title>
<path fill="none" stroke="#9eadbf" d="M217.05,-54C224.982,-54 233.678,-54 242.629,-54"/>
<polygon fill="#9eadbf" stroke="#9eadbf" points="242.816,-57.5001 252.816,-54 242.816,-50.5001 242.816,-57.5001"/>
</g>
<!-- BOOST_CIVIC_POLITICAL_PHILOSOPHY -->
<g id="node12" class="node"><title>BOOST_CIVIC_POLITICAL_PHILOSOPHY</title>
<path fill="none" stroke="#9eadbf" d="M695,-36C695,-36 597,-36 597,-36 591,-36 585,-30 585,-24 585,-24 585,-12 585,-12 585,-6 591,-0 597,-0 597,-0 695,-0 695,-0 701,-0 707,-6 707,-12 707,-12 707,-24 707,-24 707,-30 701,-36 695,-36"/>
<text text-anchor="middle" x="646" y="-14.3" font-family="Times New Roman,serif" font-size="14.00">3 City states found</text>
</g>
<!-- UNIT_SCOUT&#45;&gt;BOOST_CIVIC_POLITICAL_PHILOSOPHY -->
<g id="edge12" class="edge"><title>UNIT_SCOUT&#45;&gt;BOOST_CIVIC_POLITICAL_PHILOSOPHY</title>
<path fill="none" stroke="#9eadbf" d="M217.351,-37.4002C228.608,-33.2058 241.113,-29.2553 253,-27 363.891,-5.96075 495.578,-8.39945 574.605,-12.7295"/>
<polygon fill="#9eadbf" stroke="#9eadbf" points="574.74,-16.2429 584.924,-13.3222 575.141,-9.25443 574.74,-16.2429"/>
</g>
<!-- CIVIC_CRAFTSMANSHIP&#45;&gt;CIVIC_STATE_WORKFORCE -->
<g id="edge13" class="edge"><title>CIVIC_CRAFTSMANSHIP&#45;&gt;CIVIC_STATE_WORKFORCE</title>
<path fill="none" stroke="#e800e8" d="M549.351,-165C559.443,-165 570.233,-165 580.797,-165"/>
<polygon fill="#e800e8" stroke="#e800e8" points="580.825,-168.5 590.825,-165 580.825,-161.5 580.825,-168.5"/>
</g>
<!-- BOOST_CIVIC_POLITICAL_PHILOSOPHY&#45;&gt;CIVIC_POLITICAL_PHILOSOPHY -->
<g id="edge14" class="edge"><title>BOOST_CIVIC_POLITICAL_PHILOSOPHY&#45;&gt;CIVIC_POLITICAL_PHILOSOPHY</title>
<path fill="none" stroke="#9eadbf" stroke-dasharray="5,2" d="M683.478,-36.1242C705.835,-47.2324 734.688,-61.568 758.777,-73.5372"/>
<polygon fill="#9eadbf" stroke="#9eadbf" points="757.241,-76.6818 767.754,-77.997 760.355,-70.413 757.241,-76.6818"/>
</g>
<!-- BOOST_CIVIC_CRAFTSMANSHIP -->
<g id="node13" class="node"><title>BOOST_CIVIC_CRAFTSMANSHIP</title>
<path fill="none" stroke="#9eadbf" d="M377.5,-184C377.5,-184 290.5,-184 290.5,-184 284.5,-184 278.5,-178 278.5,-172 278.5,-172 278.5,-158 278.5,-158 278.5,-152 284.5,-146 290.5,-146 290.5,-146 377.5,-146 377.5,-146 383.5,-146 389.5,-152 389.5,-158 389.5,-158 389.5,-172 389.5,-172 389.5,-178 383.5,-184 377.5,-184"/>
<text text-anchor="middle" x="334" y="-168.8" font-family="Times New Roman,serif" font-size="14.00">3 Tiles improved</text>
<text text-anchor="middle" x="334" y="-153.8" font-family="Times New Roman,serif" font-size="14.00">60P</text>
</g>
<!-- BOOST_CIVIC_CRAFTSMANSHIP&#45;&gt;CIVIC_CRAFTSMANSHIP -->
<g id="edge15" class="edge"><title>BOOST_CIVIC_CRAFTSMANSHIP&#45;&gt;CIVIC_CRAFTSMANSHIP</title>
<path fill="none" stroke="#9eadbf" stroke-dasharray="5,2" d="M389.61,-165C406.046,-165 424.14,-165 440.8,-165"/>
<polygon fill="#9eadbf" stroke="#9eadbf" points="440.96,-168.5 450.96,-165 440.96,-161.5 440.96,-168.5"/>
</g>
</g>
</svg>
