<?xml version="1.0" encoding="UTF-8" standalone="no"?>
<!DOCTYPE svg PUBLIC "-//W3C//DTD SVG 1.1//EN"
 "http://www.w3.org/Graphics/SVG/1.1/DTD/svg11.dtd">
<!-- Generated by graphviz version 2.38.0 (20140413.2041)
 -->
<!-- Title: Civ 6 R&amp;F Civic, Technology, and Boosts network Pages: 1 -->
<svg width="486pt" height="100pt"
 viewBox="0.00 0.00 486.00 100.00" xmlns="http://www.w3.org/2000/svg" xmlns:xlink="http://www.w3.org/1999/xlink">
<g id="graph0" class="graph" transform="scale(1 1) rotate(0) translate(4 96)">
<title>Civ 6 R&amp;F Civic, Technology, and Boosts network</title>
<polygon fill="white" stroke="none" points="-4,4 -4,-96 482,-96 482,4 -4,4"/>
<!-- TECH_ANIMAL_HUSBANDRY -->
<g id="node1" class="node"><title>TECH_ANIMAL_HUSBANDRY</title>
<path fill="none" stroke="#21bff7" d="M368,-92C368,-92 271,-92 271,-92 265,-92 259,-86 259,-80 259,-80 259,-66 259,-66 259,-60 265,-54 271,-54 271,-54 368,-54 368,-54 374,-54 380,-60 380,-66 380,-66 380,-80 380,-80 380,-86 374,-92 368,-92"/>
<text text-anchor="middle" x="319.5" y="-76.8" font-family="Times New Roman,serif" font-size="14.00">Animal Husbandry</text>
<text text-anchor="middle" x="319.5" y="-61.8" font-family="Times New Roman,serif" font-size="14.00">25S</text>
</g>
<!-- TECH_ARCHERY -->
<g id="node4" class="node"><title>TECH_ARCHERY</title>
<path fill="none" stroke="#21bff7" d="M466,-64C466,-64 428,-64 428,-64 422,-64 416,-58 416,-52 416,-52 416,-38 416,-38 416,-32 422,-26 428,-26 428,-26 466,-26 466,-26 472,-26 478,-32 478,-38 478,-38 478,-52 478,-52 478,-58 472,-64 466,-64"/>
<text text-anchor="middle" x="447" y="-48.8" font-family="Times New Roman,serif" font-size="14.00">Archery</text>
<text text-anchor="middle" x="447" y="-33.8" font-family="Times New Roman,serif" font-size="14.00">50S</text>
</g>
<!-- TECH_ANIMAL_HUSBANDRY&#45;&gt;TECH_ARCHERY -->
<g id="edge1" class="edge"><title>TECH_ANIMAL_HUSBANDRY&#45;&gt;TECH_ARCHERY</title>
<path fill="none" stroke="#21bff7" d="M380.31,-59.656C389.01,-57.7149 397.786,-55.7569 405.967,-53.9318"/>
<polygon fill="#21bff7" stroke="#21bff7" points="406.962,-57.2959 415.96,-51.7022 405.437,-50.4638 406.962,-57.2959"/>
</g>
<!-- BOOST_TECH_ARCHERY -->
<g id="node2" class="node"><title>BOOST_TECH_ARCHERY</title>
<path fill="none" stroke="#9eadbf" d="M361.5,-36C361.5,-36 277.5,-36 277.5,-36 271.5,-36 265.5,-30 265.5,-24 265.5,-24 265.5,-12 265.5,-12 265.5,-6 271.5,-0 277.5,-0 277.5,-0 361.5,-0 361.5,-0 367.5,-0 373.5,-6 373.5,-12 373.5,-12 373.5,-24 373.5,-24 373.5,-30 367.5,-36 361.5,-36"/>
<text text-anchor="middle" x="319.5" y="-14.3" font-family="Times New Roman,serif" font-size="14.00">Slinger kill made</text>
</g>
<!-- BOOST_TECH_ARCHERY&#45;&gt;TECH_ARCHERY -->
<g id="edge2" class="edge"><title>BOOST_TECH_ARCHERY&#45;&gt;TECH_ARCHERY</title>
<path fill="none" stroke="#9eadbf" stroke-dasharray="5,2" d="M373.723,-29.4504C384.546,-31.7788 395.756,-34.1905 406.024,-36.3996"/>
<polygon fill="#9eadbf" stroke="#9eadbf" points="405.417,-39.849 415.93,-38.5307 406.89,-33.0056 405.417,-39.849"/>
</g>
<!-- SETTLE_FIRST_CITY -->
<g id="node3" class="node"><title>SETTLE_FIRST_CITY</title>
<path fill="none" stroke="Black" d="M92,-63C92,-63 12,-63 12,-63 6,-63 0,-57 0,-51 0,-51 0,-39 0,-39 0,-33 6,-27 12,-27 12,-27 92,-27 92,-27 98,-27 104,-33 104,-39 104,-39 104,-51 104,-51 104,-57 98,-63 92,-63"/>
<text text-anchor="middle" x="52" y="-41.3" font-family="Times New Roman,serif" font-size="14.00">Settle First City</text>
</g>
<!-- SETTLE_FIRST_CITY&#45;&gt;TECH_ANIMAL_HUSBANDRY -->
<g id="edge3" class="edge"><title>SETTLE_FIRST_CITY&#45;&gt;TECH_ANIMAL_HUSBANDRY</title>
<path fill="none" stroke="#21bff7" d="M104.191,-50.3987C145.238,-54.7275 203.269,-60.8476 248.595,-65.6277"/>
<polygon fill="#21bff7" stroke="#21bff7" points="248.336,-69.1197 258.648,-66.6879 249.07,-62.1583 248.336,-69.1197"/>
</g>
<!-- UNIT_SLINGER -->
<g id="node5" class="node"><title>UNIT_SLINGER</title>
<path fill="none" stroke="#9eadbf" d="M211,-39C211,-39 152,-39 152,-39 146,-39 140,-33 140,-27 140,-27 140,-13 140,-13 140,-7 146,-1 152,-1 152,-1 211,-1 211,-1 217,-1 223,-7 223,-13 223,-13 223,-27 223,-27 223,-33 217,-39 211,-39"/>
<text text-anchor="middle" x="181.5" y="-23.8" font-family="Times New Roman,serif" font-size="14.00">Slinger built</text>
<text text-anchor="middle" x="181.5" y="-8.8" font-family="Times New Roman,serif" font-size="14.00">35P</text>
</g>
<!-- SETTLE_FIRST_CITY&#45;&gt;UNIT_SLINGER -->
<g id="edge4" class="edge"><title>SETTLE_FIRST_CITY&#45;&gt;UNIT_SLINGER</title>
<path fill="none" stroke="#9eadbf" d="M104.124,-34.9756C112.689,-33.2962 121.571,-31.5548 130.117,-29.8791"/>
<polygon fill="#9eadbf" stroke="#9eadbf" points="130.816,-33.3087 139.956,-27.9499 129.469,-26.4395 130.816,-33.3087"/>
</g>
<!-- UNIT_SLINGER&#45;&gt;BOOST_TECH_ARCHERY -->
<g id="edge5" class="edge"><title>UNIT_SLINGER&#45;&gt;BOOST_TECH_ARCHERY</title>
<path fill="none" stroke="#9eadbf" d="M223.304,-19.3999C233.266,-19.2534 244.159,-19.0933 254.905,-18.9352"/>
<polygon fill="#9eadbf" stroke="#9eadbf" points="255.18,-22.4317 265.127,-18.7849 255.077,-15.4324 255.18,-22.4317"/>
</g>
</g>
</svg>
